<?xml version="1.0" standalone="yes"?>

<svg version="1.1" viewBox="0.0 0.0 960.0 540.0" fill="none" stroke="none" stroke-linecap="square" stroke-miterlimit="10" xmlns="http://www.w3.org/2000/svg" xmlns:xlink="http://www.w3.org/1999/xlink"><clipPath id="g150061aa58_0_0.0"><path d="m0 0l960.0 0l0 540.0l-960.0 0l0 -540.0z" clip-rule="nonzero"></path></clipPath><g clip-path="url(#g150061aa58_0_0.0)"><path fill="#ffffff" d="m0 0l960.0 0l0 540.0l-960.0 0z" fill-rule="nonzero"></path><path fill="#eeeeee" d="m312.64752 161.47145c-1.304718 -6.8049164 2.9787598 -13.541397 11.032776 -17.350906c8.053986 -3.8095093 18.466064 -4.023941 26.817963 -0.5523224l0 0c2.9583435 -3.9569397 8.373169 -6.6889496 14.606506 -7.3696136c6.2333374 -0.6806488 12.55304 0.769989 17.047424 3.9131317l0 0c2.5202026 -3.5875702 7.46875 -5.9979553 13.08963 -6.375824c5.6208496 -0.37786865 11.1185 1.3302612 14.542084 4.5182495l0 0c4.5532227 -3.8025818 11.797455 -5.40361 18.598114 -4.110321c6.800659 1.2933044 11.936279 5.2486267 13.184662 10.1545105l0 0c5.5782166 1.0799713 10.224731 3.8253632 12.739075 7.5268555c2.5143433 3.7014923 2.6498718 7.995987 0.3715515 11.773926l0 0c5.4933167 5.074188 6.778412 11.835541 3.375702 17.760818c-3.40271 5.9252777 -10.982025 10.124237 -19.909393 11.029907c-0.062927246 5.561264 -4.359955 10.664215 -11.234833 13.341904c-6.874878 2.6776886 -15.253998 2.5119781 -21.907654 -0.43325806c-2.8341675 6.660553 -10.811493 11.56134 -20.485474 12.585007c-9.673981 1.0236511 -19.310303 -2.013321 -24.745697 -7.798828c-6.662628 2.851654 -14.657257 3.6731415 -22.18042 2.279129c-7.5231934 -1.3939972 -13.941193 -4.8860626 -17.806213 -9.688431l0 0c-6.808319 0.565506 -13.391052 -1.9381409 -16.481201 -6.268387c-3.0901794 -4.330246 -2.0299683 -9.565308 2.6544495 -13.107056l0 0c-6.073517 -2.53714 -9.172607 -7.571686 -7.6812134 -12.478317c1.491394 -4.9066315 7.2353516 -8.573486 14.236572 -9.08844z" fill-rule="nonzero"></path><path fill="#eeeeee" d="m347.71796 228.58267c0 1.2978516 -1.052124 2.3499603 -2.3499756 2.3499603c-1.297821 0 -2.349945 -1.0521088 -2.349945 -2.3499603c0 -1.2978363 1.052124 -2.349945 2.349945 -2.349945c1.2978516 0 2.3499756 1.0521088 2.3499756 2.349945z" fill-rule="nonzero"></path><path fill="#eeeeee" d="m351.94028 225.65413c0 2.5956879 -2.1042175 4.6999207 -4.69989 4.6999207c-2.5957031 0 -4.6999207 -2.1042328 -4.6999207 -4.6999207c0 -2.5956879 2.1042175 -4.6999054 4.6999207 -4.6999054c2.5956726 0 4.69989 2.1042175 4.69989 4.6999054z" fill-rule="nonzero"></path><path fill="#eeeeee" d="m358.6943 218.76582c0 3.8935394 -3.1563416 7.0498657 -7.0498657 7.0498657c-3.8935242 0 -7.0498657 -3.1563263 -7.0498657 -7.0498657c0 -3.8935394 3.1563416 -7.0498657 7.0498657 -7.0498657c3.8935242 0 7.0498657 3.1563263 7.0498657 7.0498657z" fill-rule="nonzero"></path><path fill="#000000" fill-opacity="0.0" d="m315.61838 184.52805l0 0c-3.3113708 0.18397522 -6.6223755 -0.35913086 -9.488464 -1.5564117m17.860107 18.588898c-1.331543 0.3761902 -2.7273254 0.6266632 -4.151306 0.7449341m39.921875 7.4392548l0 0c-1.0014954 -1.0660095 -1.8399963 -2.2051392 -2.5012207 -3.3979645m48.75699 -5.0752716c-0.14724731 1.264389 -0.48202515 2.5141602 -0.99871826 3.7284546m20.857605 -26.765305l0 0c7.5073853 2.592987 12.245026 8.014023 12.17807 13.934677m16.547363 -28.776062c-1.2158203 2.0160675 -3.0718994 3.8045044 -5.422699 5.225067m-7.589813 -24.612915l0 0c0.20715332 0.81414795 0.30303955 1.6405334 0.28631592 2.4677124m-34.918304 -5.346176l0 0c0.7065735 -1.1384583 1.642334 -2.198471 2.7781372 -3.1470337m-28.761261 4.6465454l0 0c0.28826904 -0.9408264 0.74020386 -1.8525238 1.345459 -2.7141113m-31.83963 3.6362305l0 0c1.767273 0.7345886 3.4022217 1.6187592 4.8689575 2.6330566m-41.849762 18.061127l0 0c-0.3857727 -0.9061127 -0.6699219 -1.8324738 -0.84973145 -2.7703857" fill-rule="nonzero"></path><path stroke="#595959" stroke-width="1.0" stroke-linejoin="round" stroke-linecap="butt" d="m312.64752 161.47145c-1.304718 -6.8049164 2.9787598 -13.541397 11.032776 -17.350906c8.053986 -3.8095093 18.466064 -4.023941 26.817963 -0.5523224l0 0c2.9583435 -3.9569397 8.373169 -6.6889496 14.606506 -7.3696136c6.2333374 -0.6806488 12.55304 0.769989 17.047424 3.9131317l0 0c2.5202026 -3.5875702 7.46875 -5.9979553 13.08963 -6.375824c5.6208496 -0.37786865 11.1185 1.3302612 14.542084 4.5182495l0 0c4.5532227 -3.8025818 11.797455 -5.40361 18.598114 -4.110321c6.800659 1.2933044 11.936279 5.2486267 13.184662 10.1545105l0 0c5.5782166 1.0799713 10.224731 3.8253632 12.739075 7.5268555c2.5143433 3.7014923 2.6498718 7.995987 0.3715515 11.773926l0 0c5.4933167 5.074188 6.778412 11.835541 3.375702 17.760818c-3.40271 5.9252777 -10.982025 10.124237 -19.909393 11.029907c-0.062927246 5.561264 -4.359955 10.664215 -11.234833 13.341904c-6.874878 2.6776886 -15.253998 2.5119781 -21.907654 -0.43325806c-2.8341675 6.660553 -10.811493 11.56134 -20.485474 12.585007c-9.673981 1.0236511 -19.310303 -2.013321 -24.745697 -7.798828c-6.662628 2.851654 -14.657257 3.6731415 -22.18042 2.279129c-7.5231934 -1.3939972 -13.941193 -4.8860626 -17.806213 -9.688431l0 0c-6.808319 0.565506 -13.391052 -1.9381409 -16.481201 -6.268387c-3.0901794 -4.330246 -2.0299683 -9.565308 2.6544495 -13.107056l0 0c-6.073517 -2.53714 -9.172607 -7.571686 -7.6812134 -12.478317c1.491394 -4.9066315 7.2353516 -8.573486 14.236572 -9.08844z" fill-rule="nonzero"></path><path stroke="#595959" stroke-width="1.0" stroke-linejoin="round" stroke-linecap="butt" d="m347.71796 228.58267c0 1.2978516 -1.052124 2.3499603 -2.3499756 2.3499603c-1.297821 0 -2.349945 -1.0521088 -2.349945 -2.3499603c0 -1.2978363 1.052124 -2.349945 2.349945 -2.349945c1.2978516 0 2.3499756 1.0521088 2.3499756 2.349945z" fill-rule="nonzero"></path><path stroke="#595959" stroke-width="1.0" stroke-linejoin="round" stroke-linecap="butt" d="m351.94028 225.65413c0 2.5956879 -2.1042175 4.6999207 -4.69989 4.6999207c-2.5957031 0 -4.6999207 -2.1042328 -4.6999207 -4.6999207c0 -2.5956879 2.1042175 -4.6999054 4.6999207 -4.6999054c2.5956726 0 4.69989 2.1042175 4.69989 4.6999054z" fill-rule="nonzero"></path><path stroke="#595959" stroke-width="1.0" stroke-linejoin="round" stroke-linecap="butt" d="m358.6943 218.76582c0 3.8935394 -3.1563416 7.0498657 -7.0498657 7.0498657c-3.8935242 0 -7.0498657 -3.1563263 -7.0498657 -7.0498657c0 -3.8935394 3.1563416 -7.0498657 7.0498657 -7.0498657c3.8935242 0 7.0498657 3.1563263 7.0498657 7.0498657z" fill-rule="nonzero"></path><path stroke="#595959" stroke-width="1.0" stroke-linejoin="round" stroke-linecap="butt" d="m315.61838 184.52805l0 0c-3.3113708 0.18397522 -6.6223755 -0.35913086 -9.488464 -1.5564117m17.860107 18.588898c-1.331543 0.3761902 -2.7273254 0.6266632 -4.151306 0.7449341m39.921875 7.4392548l0 0c-1.0014954 -1.0660095 -1.8399963 -2.2051392 -2.5012207 -3.3979645m48.75699 -5.0752716c-0.14724731 1.264389 -0.48202515 2.5141602 -0.99871826 3.7284546m20.857605 -26.765305l0 0c7.5073853 2.592987 12.245026 8.014023 12.17807 13.934677m16.547363 -28.776062c-1.2158203 2.0160675 -3.0718994 3.8045044 -5.422699 5.225067m-7.589813 -24.612915l0 0c0.20715332 0.81414795 0.30303955 1.6405334 0.28631592 2.4677124m-34.918304 -5.346176l0 0c0.7065735 -1.1384583 1.642334 -2.198471 2.7781372 -3.1470337m-28.761261 4.6465454l0 0c0.28826904 -0.9408264 0.74020386 -1.8525238 1.345459 -2.7141113m-31.83963 3.6362305l0 0c1.767273 0.7345886 3.4022217 1.6187592 4.8689575 2.6330566m-41.849762 18.061127l0 0c-0.3857727 -0.9061127 -0.6699219 -1.8324738 -0.84973145 -2.7703857" fill-rule="nonzero"></path><path fill="#000000" fill-opacity="0.0" d="m32.72441 46.721786l894.55115 0l0 60.125984l-894.55115 0z" fill-rule="nonzero"></path><path fill="#000000" d="m44.63066 91.56178l0 -26.484375l11.75 0q3.53125 0 5.375 0.71875q1.84375 0.703125 2.9375 2.515625q1.109375 1.8125 1.109375 3.984375q0 2.828125 -1.828125 4.765625q-1.8125 1.921875 -5.625 2.453125q1.390625 0.671875 2.109375 1.3125q1.53125 1.40625 2.90625 3.53125l4.609375 7.203125l-4.40625 0l-3.5 -5.515625q-1.546875 -2.375 -2.546875 -3.640625q-0.984375 -1.265625 -1.765625 -1.765625q-0.78125 -0.515625 -1.59375 -0.71875q-0.609375 -0.125 -1.953125 -0.125l-4.078125 0l0 11.765625l-3.5 0zm3.5 -14.796875l7.546875 0q2.390625 0 3.75 -0.5q1.359375 -0.5 2.0625 -1.578125q0.703125 -1.09375 0.703125 -2.390625q0 -1.875 -1.375 -3.078125q-1.359375 -1.21875 -4.296875 -1.21875l-8.390625 0l0 8.765625zm36.12906 8.625l3.359375 0.40625q-0.796875 2.953125 -2.953125 4.578125q-2.140625 1.625 -5.484375 1.625q-4.21875 0 -6.6875 -2.59375q-2.453125 -2.59375 -2.453125 -7.28125q0 -4.828125 2.484375 -7.5q2.5 -2.6875 6.46875 -2.6875q3.859375 0 6.296875 2.625q2.4375 2.625 2.4375 7.375q0 0.28125 -0.015625 0.859375l-14.3125 0q0.171875 3.171875 1.78125 4.859375q1.609375 1.671875 4.015625 1.671875q1.78125 0 3.046875 -0.9375q1.265625 -0.953125 2.015625 -3.0zm-10.6875 -5.265625l10.71875 0q-0.21875 -2.421875 -1.234375 -3.625q-1.546875 -1.890625 -4.015625 -1.890625q-2.25 0 -3.78125 1.5q-1.515625 1.5 -1.6875 4.015625zm30.822632 9.078125q-1.796875 1.53125 -3.46875 2.171875q-1.671875 0.625 -3.59375 0.625q-3.15625 0 -4.859375 -1.546875q-1.6875 -1.546875 -1.6875 -3.953125q0 -1.40625 0.640625 -2.5625q0.640625 -1.171875 1.671875 -1.875q1.046875 -0.703125 2.34375 -1.0625q0.953125 -0.265625 2.890625 -0.5q3.9375 -0.46875 5.796875 -1.109375q0.015625 -0.671875 0.015625 -0.859375q0 -1.984375 -0.921875 -2.796875q-1.25 -1.09375 -3.703125 -1.09375q-2.296875 0 -3.390625 0.796875q-1.09375 0.796875 -1.609375 2.84375l-3.1875 -0.4375q0.4375 -2.03125 1.421875 -3.28125q1.0 -1.265625 2.875 -1.9375q1.890625 -0.6875 4.359375 -0.6875q2.46875 0 4.0 0.578125q1.53125 0.578125 2.25 1.453125q0.734375 0.875 1.015625 2.21875q0.15625 0.828125 0.15625 3.0l0 4.328125q0 4.546875 0.203125 5.75q0.21875 1.1875 0.828125 2.296875l-3.390625 0q-0.5 -1.015625 -0.65625 -2.359375zm-0.265625 -7.265625q-1.765625 0.71875 -5.3125 1.21875q-2.0 0.296875 -2.84375 0.65625q-0.828125 0.359375 -1.28125 1.0625q-0.4375 0.6875 -0.4375 1.53125q0 1.3125 0.984375 2.1875q0.984375 0.859375 2.875 0.859375q1.875 0 3.34375 -0.828125q1.46875 -0.828125 2.15625 -2.25q0.515625 -1.09375 0.515625 -3.25l0 -1.1875zm20.963257 9.625l0 -2.421875q-1.828125 2.859375 -5.375 2.859375q-2.28125 0 -4.21875 -1.265625q-1.921875 -1.265625 -2.984375 -3.53125q-1.046875 -2.265625 -1.046875 -5.21875q0 -2.875 0.953125 -5.203125q0.96875 -2.34375 2.875 -3.59375q1.921875 -1.25 4.28125 -1.25q1.734375 0 3.09375 0.734375q1.359375 0.734375 2.203125 1.90625l0 -9.5l3.234375 0l0 26.484375l-3.015625 0zm-10.28125 -9.578125q0 3.6875 1.546875 5.515625q1.5625 1.828125 3.671875 1.828125q2.125 0 3.609375 -1.75q1.5 -1.75 1.5 -5.3125q0 -3.953125 -1.515625 -5.78125q-1.515625 -1.84375 -3.734375 -1.84375q-2.171875 0 -3.625 1.765625q-1.453125 1.765625 -1.453125 5.578125zm18.603882 -13.171875l0 -3.734375l3.25 0l0 3.734375l-3.25 0zm0 22.75l0 -19.1875l3.25 0l0 19.1875l-3.25 0zm8.277496 0l0 -19.1875l2.921875 0l0 2.734375q2.125 -3.171875 6.109375 -3.171875q1.734375 0 3.1875 0.625q1.453125 0.625 2.171875 1.640625q0.734375 1.015625 1.015625 2.40625q0.1875 0.890625 0.1875 3.15625l0 11.796875l-3.25 0l0 -11.671875q0 -1.984375 -0.390625 -2.96875q-0.375 -0.984375 -1.34375 -1.5625q-0.953125 -0.59375 -2.265625 -0.59375q-2.078125 0 -3.59375 1.3125q-1.5 1.3125 -1.5 5.0l0 10.484375l-3.25 0zm20.166382 1.59375l3.15625 0.46875q0.203125 1.453125 1.109375 2.125q1.203125 0.90625 3.296875 0.90625q2.265625 0 3.484375 -0.90625q1.234375 -0.90625 1.671875 -2.53125q0.25 -0.984375 0.234375 -4.171875q-2.125 2.515625 -5.3125 2.515625q-3.953125 0 -6.125 -2.84375q-2.171875 -2.859375 -2.171875 -6.859375q0 -2.75 1.0 -5.0625q1.0 -2.328125 2.875 -3.59375q1.890625 -1.265625 4.4375 -1.265625q3.40625 0 5.609375 2.75l0 -2.3125l3.0 0l0 16.578125q0 4.484375 -0.921875 6.359375q-0.90625 1.875 -2.890625 2.953125q-1.96875 1.078125 -4.859375 1.078125q-3.4375 0 -5.5625 -1.546875q-2.109375 -1.53125 -2.03125 -4.640625zm2.6875 -11.53125q0 3.78125 1.5 5.515625q1.5 1.734375 3.765625 1.734375q2.234375 0 3.75 -1.71875q1.515625 -1.734375 1.515625 -5.421875q0 -3.515625 -1.5625 -5.296875q-1.5625 -1.796875 -3.765625 -1.796875q-2.171875 0 -3.6875 1.765625q-1.515625 1.75 -1.515625 5.21875zm16.228882 10.390625l7.671875 -27.390625l2.609375 0l-7.65625 27.390625l-2.625 0zm16.355331 -0.453125l-5.875 -19.1875l3.359375 0l3.046875 11.078125l1.140625 4.109375q0.078125 -0.296875 1.0 -3.953125l3.046875 -11.234375l3.34375 0l2.875 11.125l0.953125 3.671875l1.109375 -3.703125l3.28125 -11.09375l3.171875 0l-6.0 19.1875l-3.375 0l-3.0625 -11.484375l-0.734375 -3.28125l-3.890625 14.765625l-3.390625 0zm23.379059 0l0 -19.1875l2.921875 0l0 2.90625q1.125 -2.03125 2.0625 -2.6875q0.953125 -0.65625 2.09375 -0.65625q1.640625 0 3.34375 1.046875l-1.125 3.015625q-1.1875 -0.703125 -2.375 -0.703125q-1.078125 0 -1.921875 0.640625q-0.84375 0.640625 -1.203125 1.78125q-0.546875 1.734375 -0.546875 3.796875l0 10.046875l-3.25 0zm12.477432 -22.75l0 -3.734375l3.25 0l0 3.734375l-3.25 0zm0 22.75l0 -19.1875l3.25 0l0 19.1875l-3.25 0zm15.386871 -2.90625l0.46875 2.875q-1.375 0.28125 -2.46875 0.28125q-1.765625 0 -2.75 -0.5625q-0.96875 -0.5625 -1.375 -1.46875q-0.390625 -0.90625 -0.390625 -3.84375l0 -11.03125l-2.375 0l0 -2.53125l2.375 0l0 -4.75l3.234375 -1.953125l0 6.703125l3.28125 0l0 2.53125l-3.28125 0l0 11.21875q0 1.390625 0.171875 1.796875q0.171875 0.390625 0.5625 0.625q0.390625 0.234375 1.109375 0.234375q0.546875 0 1.4375 -0.125zm3.2772064 -19.84375l0 -3.734375l3.25 0l0 3.734375l-3.25 0zm0 22.75l0 -19.1875l3.25 0l0 19.1875l-3.25 0zm8.277496 0l0 -19.1875l2.921875 0l0 2.734375q2.125 -3.171875 6.109375 -3.171875q1.734375 0 3.1875 0.625q1.453125 0.625 2.171875 1.640625q0.734375 1.015625 1.015625 2.40625q0.1875 0.890625 0.1875 3.15625l0 11.796875l-3.25 0l0 -11.671875q0 -1.984375 -0.390625 -2.96875q-0.375 -0.984375 -1.34375 -1.5625q-0.953125 -0.59375 -2.265625 -0.59375q-2.078125 0 -3.59375 1.3125q-1.5 1.3125 -1.5 5.0l0 10.484375l-3.25 0zm20.166382 1.59375l3.15625 0.46875q0.203125 1.453125 1.109375 2.125q1.203125 0.90625 3.296875 0.90625q2.2655945 0 3.4843445 -0.90625q1.234375 -0.90625 1.671875 -2.53125q0.25 -0.984375 0.234375 -4.171875q-2.125 2.515625 -5.3124695 2.515625q-3.953125 0 -6.125 -2.84375q-2.171875 -2.859375 -2.171875 -6.859375q0 -2.75 1.0 -5.0625q1.0 -2.328125 2.875 -3.59375q1.890625 -1.265625 4.4375 -1.265625q3.4062195 0 5.6093445 2.75l0 -2.3125l3.0 0l0 16.578125q0 4.484375 -0.921875 6.359375q-0.90625 1.875 -2.890625 2.953125q-1.96875 1.078125 -4.8593445 1.078125q-3.4375 0 -5.5625 -1.546875q-2.109375 -1.53125 -2.03125 -4.640625zm2.6875 -11.53125q0 3.78125 1.5 5.515625q1.5 1.734375 3.765625 1.734375q2.2343445 0 3.7499695 -1.71875q1.515625 -1.734375 1.515625 -5.421875q0 -3.515625 -1.5625 -5.296875q-1.5625 -1.796875 -3.7655945 -1.796875q-2.171875 0 -3.6875 1.765625q-1.515625 1.75 -1.515625 5.21875zm41.552948 7.578125q-1.796875 1.53125 -3.46875 2.171875q-1.671875 0.625 -3.59375 0.625q-3.15625 0 -4.859375 -1.546875q-1.6875 -1.546875 -1.6875 -3.953125q0 -1.40625 0.640625 -2.5625q0.640625 -1.171875 1.671875 -1.875q1.046875 -0.703125 2.34375 -1.0625q0.953125 -0.265625 2.890625 -0.5q3.9375 -0.46875 5.796875 -1.109375q0.015625 -0.671875 0.015625 -0.859375q0 -1.984375 -0.921875 -2.796875q-1.25 -1.09375 -3.703125 -1.09375q-2.296875 0 -3.390625 0.796875q-1.09375 0.796875 -1.609375 2.84375l-3.1875 -0.4375q0.4375 -2.03125 1.421875 -3.28125q1.0 -1.265625 2.875 -1.9375q1.890625 -0.6875 4.359375 -0.6875q2.46875 0 4.0 0.578125q1.53125 0.578125 2.25 1.453125q0.734375 0.875 1.015625 2.21875q0.15625 0.828125 0.15625 3.0l0 4.328125q0 4.546875 0.203125 5.75q0.21875 1.1875 0.828125 2.296875l-3.390625 0q-0.5 -1.015625 -0.65625 -2.359375zm-0.265625 -7.265625q-1.765625 0.71875 -5.3125 1.21875q-2.0 0.296875 -2.84375 0.65625q-0.828125 0.359375 -1.28125 1.0625q-0.4375 0.6875 -0.4375 1.53125q0 1.3125 0.984375 2.1875q0.984375 0.859375 2.875 0.859375q1.875 0 3.34375 -0.828125q1.46875 -0.828125 2.15625 -2.25q0.515625 -1.09375 0.515625 -3.25l0 -1.1875zm21.881104 9.625l-3.015625 0l0 -26.484375l3.25 0l0 9.453125q2.0625 -2.59375 5.265625 -2.59375q1.765625 0 3.34375 0.71875q1.578125 0.71875 2.59375 2.015625q1.03125 1.28125 1.609375 3.109375q0.578125 1.828125 0.578125 3.90625q0 4.921875 -2.4375 7.625q-2.4375 2.6875 -5.859375 2.6875q-3.390625 0 -5.328125 -2.84375l0 2.40625zm-0.03125 -9.734375q0 3.453125 0.9375 4.984375q1.53125 2.515625 4.15625 2.515625q2.125 0 3.671875 -1.84375q1.5625 -1.859375 1.5625 -5.53125q0 -3.765625 -1.5 -5.546875q-1.484375 -1.796875 -3.59375 -1.796875q-2.125 0 -3.6875 1.859375q-1.546875 1.84375 -1.546875 5.359375zm17.713257 9.734375l0 -26.484375l3.265625 0l0 26.484375l-3.265625 0zm7.1681213 -9.59375q0 -5.328125 2.953125 -7.890625q2.484375 -2.140625 6.03125 -2.140625q3.96875 0 6.46875 2.59375q2.515625 2.59375 2.515625 7.171875q0 3.703125 -1.109375 5.828125q-1.109375 2.109375 -3.234375 3.296875q-2.125 1.171875 -4.640625 1.171875q-4.015625 0 -6.5 -2.578125q-2.484375 -2.59375 -2.484375 -7.453125zm3.34375 0q0 3.6875 1.59375 5.53125q1.609375 1.828125 4.046875 1.828125q2.421875 0 4.03125 -1.84375q1.609375 -1.84375 1.609375 -5.625q0 -3.5625 -1.625 -5.390625q-1.609375 -1.828125 -4.015625 -1.828125q-2.4375 0 -4.046875 1.828125q-1.59375 1.8125 -1.59375 5.5zm31.135132 2.5625l3.203125 0.421875q-0.515625 3.296875 -2.6875 5.171875q-2.15625 1.875 -5.296875 1.875q-3.9375 0 -6.328125 -2.578125q-2.390625 -2.578125 -2.390625 -7.375q0 -3.109375 1.015625 -5.4375q1.03125 -2.34375 3.140625 -3.5q2.109375 -1.171875 4.578125 -1.171875q3.125 0 5.109375 1.59375q2.0 1.578125 2.546875 4.484375l-3.15625 0.484375q-0.453125 -1.9375 -1.609375 -2.90625q-1.140625 -0.984375 -2.765625 -0.984375q-2.453125 0 -4.0 1.765625q-1.53125 1.765625 -1.53125 5.578125q0 3.859375 1.484375 5.625q1.484375 1.75 3.875 1.75q1.90625 0 3.1875 -1.171875q1.28125 -1.1875 1.625 -3.625zm6.1640625 7.03125l0 -26.484375l3.25 0l0 15.109375l7.703125 -7.8125l4.203125 0l-7.328125 7.125l8.078125 12.0625l-4.015625 0l-6.34375 -9.8125l-2.296875 2.203125l0 7.609375l-3.25 0z" fill-rule="nonzero"></path><path fill="#fff2cc" d="m440.2152 411.24408l75.1181 0l0 40.44095l-75.1181 0z" fill-rule="nonzero"></path><path stroke="#000000" stroke-width="1.0" stroke-linejoin="round" stroke-linecap="butt" d="m440.2152 411.24408l75.1181 0l0 40.44095l-75.1181 0z" fill-rule="nonzero"></path><path fill="#000000" d="m453.62442 438.38455l0 -13.59375l1.671875 0l0 7.75l3.953125 -4.015625l2.15625 0l-3.765625 3.65625l4.140625 6.203125l-2.0625 0l-3.25 -5.03125l-1.171875 1.125l0 3.90625l-1.671875 0zm16.0625 -3.171875l1.71875 0.21875q-0.40625 1.5 -1.515625 2.34375q-1.09375 0.828125 -2.8125 0.828125q-2.15625 0 -3.421875 -1.328125q-1.265625 -1.328125 -1.265625 -3.734375q0 -2.484375 1.265625 -3.859375q1.28125 -1.375 3.328125 -1.375q1.984375 0 3.234375 1.34375q1.25 1.34375 1.25 3.796875q0 0.140625 -0.015625 0.4375l-7.34375 0q0.09375 1.625 0.921875 2.484375q0.828125 0.859375 2.0625 0.859375q0.90625 0 1.546875 -0.46875q0.65625 -0.484375 1.046875 -1.546875zm-5.484375 -2.703125l5.5 0q-0.109375 -1.234375 -0.625 -1.859375q-0.796875 -0.96875 -2.078125 -0.96875q-1.140625 0 -1.9375 0.78125q-0.78125 0.765625 -0.859375 2.046875zm15.860077 2.703125l1.71875 0.21875q-0.40625 1.5 -1.515625 2.34375q-1.09375 0.828125 -2.8125 0.828125q-2.15625 0 -3.421875 -1.328125q-1.265625 -1.328125 -1.265625 -3.734375q0 -2.484375 1.265625 -3.859375q1.28125 -1.375 3.328125 -1.375q1.984375 0 3.234375 1.34375q1.25 1.34375 1.25 3.796875q0 0.140625 -0.015625 0.4375l-7.34375 0q0.09375 1.625 0.921875 2.484375q0.828125 0.859375 2.0625 0.859375q0.90625 0 1.546875 -0.46875q0.65625 -0.484375 1.046875 -1.546875zm-5.484375 -2.703125l5.5 0q-0.109375 -1.234375 -0.625 -1.859375q-0.796875 -0.96875 -2.078125 -0.96875q-1.140625 0 -1.9375 0.78125q-0.78125 0.765625 -0.859375 2.046875zm9.110107 9.65625l0 -13.640625l1.53125 0l0 1.28125q0.53125 -0.75 1.203125 -1.125q0.6875 -0.375 1.640625 -0.375q1.265625 0 2.234375 0.65625q0.96875 0.640625 1.453125 1.828125q0.5 1.1875 0.5 2.59375q0 1.515625 -0.546875 2.734375q-0.546875 1.203125 -1.578125 1.84375q-1.03125 0.640625 -2.171875 0.640625q-0.84375 0 -1.515625 -0.34375q-0.65625 -0.359375 -1.078125 -0.890625l0 4.796875l-1.671875 0zm1.515625 -8.65625q0 1.90625 0.765625 2.8125q0.78125 0.90625 1.875 0.90625q1.109375 0 1.890625 -0.9375q0.796875 -0.9375 0.796875 -2.921875q0 -1.875 -0.78125 -2.8125q-0.765625 -0.9375 -1.84375 -0.9375q-1.0625 0 -1.890625 1.0q-0.8125 1.0 -0.8125 2.890625zm8.391327 -1.828125q0 -2.421875 0.5 -3.890625q0.5 -1.46875 1.46875 -2.265625q0.984375 -0.796875 2.46875 -0.796875q1.09375 0 1.921875 0.4375q0.828125 0.4375 1.359375 1.28125q0.546875 0.828125 0.84375 2.015625q0.3125 1.1875 0.3125 3.21875q0 2.390625 -0.5 3.859375q-0.484375 1.46875 -1.46875 2.28125q-0.96875 0.796875 -2.46875 0.796875q-1.96875 0 -3.078125 -1.40625q-1.359375 -1.703125 -1.359375 -5.53125zm1.71875 0q0 3.34375 0.78125 4.453125q0.796875 1.109375 1.9375 1.109375q1.15625 0 1.9375 -1.109375q0.78125 -1.125 0.78125 -4.453125q0 -3.359375 -0.78125 -4.46875q-0.78125 -1.109375 -1.953125 -1.109375q-1.15625 0 -1.828125 0.984375q-0.875 1.234375 -0.875 4.59375z" fill-rule="nonzero"></path><path fill="#fff2cc" d="m529.6798 411.24408l75.1181 0l0 40.44095l-75.1181 0z" fill-rule="nonzero"></path><path stroke="#000000" stroke-width="1.0" stroke-linejoin="round" stroke-linecap="butt" d="m529.6798 411.24408l75.1181 0l0 40.44095l-75.1181 0z" fill-rule="nonzero"></path><path fill="#000000" d="m543.089 438.38455l0 -13.59375l1.671875 0l0 7.75l3.953125 -4.015625l2.15625 0l-3.765625 3.65625l4.140625 6.203125l-2.0625 0l-3.25 -5.03125l-1.171875 1.125l0 3.90625l-1.671875 0zm16.0625 -3.171875l1.71875 0.21875q-0.40625 1.5 -1.515625 2.34375q-1.09375 0.828125 -2.8125 0.828125q-2.15625 0 -3.421875 -1.328125q-1.265625 -1.328125 -1.265625 -3.734375q0 -2.484375 1.265625 -3.859375q1.28125 -1.375 3.328125 -1.375q1.984375 0 3.234375 1.34375q1.25 1.34375 1.25 3.796875q0 0.140625 -0.015625 0.4375l-7.34375 0q0.09375 1.625 0.921875 2.484375q0.828125 0.859375 2.0625 0.859375q0.90625 0 1.546875 -0.46875q0.65625 -0.484375 1.046875 -1.546875zm-5.484375 -2.703125l5.5 0q-0.109375 -1.234375 -0.625 -1.859375q-0.796875 -0.96875 -2.078125 -0.96875q-1.140625 0 -1.9375 0.78125q-0.78125 0.765625 -0.859375 2.046875zm15.860046 2.703125l1.71875 0.21875q-0.40625 1.5 -1.515625 2.34375q-1.09375 0.828125 -2.8125 0.828125q-2.15625 0 -3.421875 -1.328125q-1.265625 -1.328125 -1.265625 -3.734375q0 -2.484375 1.265625 -3.859375q1.28125 -1.375 3.328125 -1.375q1.984375 0 3.234375 1.34375q1.25 1.34375 1.25 3.796875q0 0.140625 -0.015625 0.4375l-7.34375 0q0.09375 1.625 0.921875 2.484375q0.828125 0.859375 2.0625 0.859375q0.90625 0 1.546875 -0.46875q0.65625 -0.484375 1.046875 -1.546875zm-5.484375 -2.703125l5.5 0q-0.109375 -1.234375 -0.625 -1.859375q-0.796875 -0.96875 -2.078125 -0.96875q-1.140625 0 -1.9375 0.78125q-0.78125 0.765625 -0.859375 2.046875zm9.110107 9.65625l0 -13.640625l1.53125 0l0 1.28125q0.53125 -0.75 1.203125 -1.125q0.6875 -0.375 1.640625 -0.375q1.265625 0 2.234375 0.65625q0.96875 0.640625 1.453125 1.828125q0.5 1.1875 0.5 2.59375q0 1.515625 -0.546875 2.734375q-0.546875 1.203125 -1.578125 1.84375q-1.03125 0.640625 -2.171875 0.640625q-0.84375 0 -1.515625 -0.34375q-0.65625 -0.359375 -1.078125 -0.890625l0 4.796875l-1.671875 0zm1.515625 -8.65625q0 1.90625 0.765625 2.8125q0.78125 0.90625 1.875 0.90625q1.109375 0 1.890625 -0.9375q0.796875 -0.9375 0.796875 -2.921875q0 -1.875 -0.78125 -2.8125q-0.765625 -0.9375 -1.84375 -0.9375q-1.0625 0 -1.890625 1.0q-0.8125 1.0 -0.8125 2.890625zm14.688232 4.875l-1.671875 0l0 -10.640625q-0.59375 0.578125 -1.578125 1.15625q-0.984375 0.5625 -1.765625 0.859375l0 -1.625q1.40625 -0.65625 2.453125 -1.59375q1.046875 -0.9375 1.484375 -1.8125l1.078125 0l0 13.65625z" fill-rule="nonzero"></path><path fill="#fff2cc" d="m619.14435 411.24408l75.1181 0l0 40.44095l-75.1181 0z" fill-rule="nonzero"></path><path stroke="#000000" stroke-width="1.0" stroke-linejoin="round" stroke-linecap="butt" d="m619.14435 411.24408l75.1181 0l0 40.44095l-75.1181 0z" fill-rule="nonzero"></path><path fill="#000000" d="m632.5535 438.38455l0 -13.59375l1.671875 0l0 7.75l3.953125 -4.015625l2.15625 0l-3.765625 3.65625l4.140625 6.203125l-2.0625 0l-3.25 -5.03125l-1.171875 1.125l0 3.90625l-1.671875 0zm16.0625 -3.171875l1.71875 0.21875q-0.40625 1.5 -1.515625 2.34375q-1.09375 0.828125 -2.8125 0.828125q-2.15625 0 -3.421875 -1.328125q-1.265625 -1.328125 -1.265625 -3.734375q0 -2.484375 1.265625 -3.859375q1.28125 -1.375 3.328125 -1.375q1.984375 0 3.234375 1.34375q1.25 1.34375 1.25 3.796875q0 0.140625 -0.015625 0.4375l-7.34375 0q0.09375 1.625 0.921875 2.484375q0.828125 0.859375 2.0625 0.859375q0.90625 0 1.546875 -0.46875q0.65625 -0.484375 1.046875 -1.546875zm-5.484375 -2.703125l5.5 0q-0.109375 -1.234375 -0.625 -1.859375q-0.796875 -0.96875 -2.078125 -0.96875q-1.140625 0 -1.9375 0.78125q-0.78125 0.765625 -0.859375 2.046875zm15.860107 2.703125l1.71875 0.21875q-0.40625 1.5 -1.515625 2.34375q-1.09375 0.828125 -2.8125 0.828125q-2.15625 0 -3.421875 -1.328125q-1.265625 -1.328125 -1.265625 -3.734375q0 -2.484375 1.265625 -3.859375q1.28125 -1.375 3.328125 -1.375q1.984375 0 3.234375 1.34375q1.25 1.34375 1.25 3.796875q0 0.140625 -0.015625 0.4375l-7.34375 0q0.09375 1.625 0.921875 2.484375q0.828125 0.859375 2.0625 0.859375q0.90625 0 1.546875 -0.46875q0.65625 -0.484375 1.046875 -1.546875zm-5.484375 -2.703125l5.5 0q-0.109375 -1.234375 -0.625 -1.859375q-0.796875 -0.96875 -2.078125 -0.96875q-1.140625 0 -1.9375 0.78125q-0.78125 0.765625 -0.859375 2.046875zm9.110107 9.65625l0 -13.640625l1.53125 0l0 1.28125q0.53125 -0.75 1.203125 -1.125q0.6875 -0.375 1.640625 -0.375q1.265625 0 2.234375 0.65625q0.96875 0.640625 1.453125 1.828125q0.5 1.1875 0.5 2.59375q0 1.515625 -0.546875 2.734375q-0.546875 1.203125 -1.578125 1.84375q-1.03125 0.640625 -2.171875 0.640625q-0.84375 0 -1.515625 -0.34375q-0.65625 -0.359375 -1.078125 -0.890625l0 4.796875l-1.671875 0zm1.515625 -8.65625q0 1.90625 0.765625 2.8125q0.78125 0.90625 1.875 0.90625q1.109375 0 1.890625 -0.9375q0.796875 -0.9375 0.796875 -2.921875q0 -1.875 -0.78125 -2.8125q-0.765625 -0.9375 -1.84375 -0.9375q-1.0625 0 -1.890625 1.0q-0.8125 1.0 -0.8125 2.890625zm17.172546 3.265625l0 1.609375l-8.984375 0q-0.015625 -0.609375 0.1875 -1.15625q0.34375 -0.921875 1.09375 -1.8125q0.765625 -0.890625 2.1875 -2.0625q2.21875 -1.8125 3.0 -2.875q0.78125 -1.0625 0.78125 -2.015625q0 -0.984375 -0.71875 -1.671875q-0.703125 -0.6875 -1.84375 -0.6875q-1.203125 0 -1.9375 0.734375q-0.71875 0.71875 -0.71875 2.0l-1.71875 -0.171875q0.171875 -1.921875 1.328125 -2.921875q1.15625 -1.015625 3.09375 -1.015625q1.953125 0 3.09375 1.09375q1.140625 1.078125 1.140625 2.6875q0 0.8125 -0.34375 1.609375q-0.328125 0.78125 -1.109375 1.65625q-0.765625 0.859375 -2.5625 2.390625q-1.5 1.265625 -1.9375 1.71875q-0.421875 0.4375 -0.703125 0.890625l6.671875 0z" fill-rule="nonzero"></path><path fill="#fff2cc" d="m708.60895 411.24408l75.1181 0l0 40.44095l-75.1181 0z" fill-rule="nonzero"></path><path stroke="#000000" stroke-width="1.0" stroke-linejoin="round" stroke-linecap="butt" d="m708.60895 411.24408l75.1181 0l0 40.44095l-75.1181 0z" fill-rule="nonzero"></path><path fill="#000000" d="m722.0181 438.38455l0 -13.59375l1.671875 0l0 7.75l3.953125 -4.015625l2.15625 0l-3.765625 3.65625l4.140625 6.203125l-2.0625 0l-3.25 -5.03125l-1.171875 1.125l0 3.90625l-1.671875 0zm16.0625 -3.171875l1.71875 0.21875q-0.40625 1.5 -1.515625 2.34375q-1.09375 0.828125 -2.8125 0.828125q-2.15625 0 -3.421875 -1.328125q-1.265625 -1.328125 -1.265625 -3.734375q0 -2.484375 1.265625 -3.859375q1.28125 -1.375 3.328125 -1.375q1.984375 0 3.234375 1.34375q1.25 1.34375 1.25 3.796875q0 0.140625 -0.015625 0.4375l-7.34375 0q0.09375 1.625 0.921875 2.484375q0.828125 0.859375 2.0625 0.859375q0.90625 0 1.546875 -0.46875q0.65625 -0.484375 1.046875 -1.546875zm-5.484375 -2.703125l5.5 0q-0.109375 -1.234375 -0.625 -1.859375q-0.796875 -0.96875 -2.078125 -0.96875q-1.140625 0 -1.9375 0.78125q-0.78125 0.765625 -0.859375 2.046875zm15.860046 2.703125l1.71875 0.21875q-0.40625 1.5 -1.515625 2.34375q-1.09375 0.828125 -2.8125 0.828125q-2.15625 0 -3.421875 -1.328125q-1.265625 -1.328125 -1.265625 -3.734375q0 -2.484375 1.265625 -3.859375q1.28125 -1.375 3.328125 -1.375q1.984375 0 3.234375 1.34375q1.25 1.34375 1.25 3.796875q0 0.140625 -0.015625 0.4375l-7.34375 0q0.09375 1.625 0.921875 2.484375q0.828125 0.859375 2.0625 0.859375q0.90625 0 1.546875 -0.46875q0.65625 -0.484375 1.046875 -1.546875zm-5.484375 -2.703125l5.5 0q-0.109375 -1.234375 -0.625 -1.859375q-0.796875 -0.96875 -2.078125 -0.96875q-1.140625 0 -1.9375 0.78125q-0.78125 0.765625 -0.859375 2.046875zm9.110107 9.65625l0 -13.640625l1.53125 0l0 1.28125q0.53125 -0.75 1.203125 -1.125q0.6875 -0.375 1.640625 -0.375q1.265625 0 2.234375 0.65625q0.96875 0.640625 1.453125 1.828125q0.5 1.1875 0.5 2.59375q0 1.515625 -0.546875 2.734375q-0.546875 1.203125 -1.578125 1.84375q-1.03125 0.640625 -2.171875 0.640625q-0.84375 0 -1.515625 -0.34375q-0.65625 -0.359375 -1.078125 -0.890625l0 4.796875l-1.671875 0zm1.515625 -8.65625q0 1.90625 0.765625 2.8125q0.78125 0.90625 1.875 0.90625q1.109375 0 1.890625 -0.9375q0.796875 -0.9375 0.796875 -2.921875q0 -1.875 -0.78125 -2.8125q-0.765625 -0.9375 -1.84375 -0.9375q-1.0625 0 -1.890625 1.0q-0.8125 1.0 -0.8125 2.890625zm8.406982 1.28125l1.671875 -0.21875q0.28125 1.421875 0.96875 2.046875q0.703125 0.625 1.6875 0.625q1.1875 0 2.0 -0.8125q0.8125 -0.828125 0.8125 -2.03125q0 -1.140625 -0.765625 -1.890625q-0.75 -0.75 -1.90625 -0.75q-0.46875 0 -1.171875 0.1875l0.1875 -1.46875q0.15625 0.015625 0.265625 0.015625q1.0625 0 1.90625 -0.546875q0.859375 -0.5625 0.859375 -1.71875q0 -0.921875 -0.625 -1.515625q-0.609375 -0.609375 -1.59375 -0.609375q-0.96875 0 -1.625 0.609375q-0.640625 0.609375 -0.828125 1.84375l-1.671875 -0.296875q0.296875 -1.6875 1.375 -2.609375q1.09375 -0.921875 2.71875 -0.921875q1.109375 0 2.046875 0.484375q0.9375 0.46875 1.421875 1.296875q0.5 0.828125 0.5 1.75q0 0.890625 -0.46875 1.609375q-0.46875 0.71875 -1.40625 1.15625q1.21875 0.265625 1.875 1.15625q0.671875 0.875 0.671875 2.1875q0 1.78125 -1.296875 3.015625q-1.296875 1.234375 -3.28125 1.234375q-1.796875 0 -2.984375 -1.0625q-1.171875 -1.0625 -1.34375 -2.765625z" fill-rule="nonzero"></path><path fill="#fff2cc" d="m798.0735 411.24408l75.1181 0l0 40.44095l-75.1181 0z" fill-rule="nonzero"></path><path stroke="#000000" stroke-width="1.0" stroke-linejoin="round" stroke-linecap="butt" d="m798.0735 411.24408l75.1181 0l0 40.44095l-75.1181 0z" fill-rule="nonzero"></path><path fill="#000000" d="m811.48267 438.38455l0 -13.59375l1.671875 0l0 7.75l3.953125 -4.015625l2.15625 0l-3.765625 3.65625l4.140625 6.203125l-2.0625 0l-3.25 -5.03125l-1.171875 1.125l0 3.90625l-1.671875 0zm16.0625 -3.171875l1.71875 0.21875q-0.40625 1.5 -1.515625 2.34375q-1.09375 0.828125 -2.8125 0.828125q-2.15625 0 -3.421875 -1.328125q-1.265625 -1.328125 -1.265625 -3.734375q0 -2.484375 1.265625 -3.859375q1.28125 -1.375 3.328125 -1.375q1.984375 0 3.234375 1.34375q1.25 1.34375 1.25 3.796875q0 0.140625 -0.015625 0.4375l-7.34375 0q0.09375 1.625 0.921875 2.484375q0.828125 0.859375 2.0625 0.859375q0.90625 0 1.546875 -0.46875q0.65625 -0.484375 1.046875 -1.546875zm-5.484375 -2.703125l5.5 0q-0.109375 -1.234375 -0.625 -1.859375q-0.796875 -0.96875 -2.078125 -0.96875q-1.140625 0 -1.9375 0.78125q-0.78125 0.765625 -0.859375 2.046875zm15.860107 2.703125l1.71875 0.21875q-0.40625 1.5 -1.515625 2.34375q-1.09375 0.828125 -2.8125 0.828125q-2.15625 0 -3.421875 -1.328125q-1.265625 -1.328125 -1.265625 -3.734375q0 -2.484375 1.265625 -3.859375q1.28125 -1.375 3.328125 -1.375q1.984375 0 3.234375 1.34375q1.25 1.34375 1.25 3.796875q0 0.140625 -0.015625 0.4375l-7.34375 0q0.09375 1.625 0.921875 2.484375q0.828125 0.859375 2.0625 0.859375q0.90625 0 1.546875 -0.46875q0.65625 -0.484375 1.046875 -1.546875zm-5.484375 -2.703125l5.5 0q-0.109375 -1.234375 -0.625 -1.859375q-0.796875 -0.96875 -2.078125 -0.96875q-1.140625 0 -1.9375 0.78125q-0.78125 0.765625 -0.859375 2.046875zm9.110107 9.65625l0 -13.640625l1.53125 0l0 1.28125q0.53125 -0.75 1.203125 -1.125q0.6875 -0.375 1.640625 -0.375q1.265625 0 2.234375 0.65625q0.96875 0.640625 1.453125 1.828125q0.5 1.1875 0.5 2.59375q0 1.515625 -0.546875 2.734375q-0.546875 1.203125 -1.578125 1.84375q-1.03125 0.640625 -2.171875 0.640625q-0.84375 0 -1.515625 -0.34375q-0.65625 -0.359375 -1.078125 -0.890625l0 4.796875l-1.671875 0zm1.515625 -8.65625q0 1.90625 0.765625 2.8125q0.78125 0.90625 1.875 0.90625q1.109375 0 1.890625 -0.9375q0.796875 -0.9375 0.796875 -2.921875q0 -1.875 -0.78125 -2.8125q-0.765625 -0.9375 -1.84375 -0.9375q-1.0625 0 -1.890625 1.0q-0.8125 1.0 -0.8125 2.890625zm13.750671 4.875l0 -3.25l-5.90625 0l0 -1.53125l6.21875 -8.8125l1.359375 0l0 8.8125l1.84375 0l0 1.53125l-1.84375 0l0 3.25l-1.671875 0zm0 -4.78125l0 -6.140625l-4.25 6.140625l4.25 0z" fill-rule="nonzero"></path><path fill="#ead1dc" d="m260.48032 227.8727l75.1181 0l0 40.440964l-75.1181 0z" fill-rule="nonzero"></path><path stroke="#000000" stroke-width="1.0" stroke-linejoin="round" stroke-linecap="butt" d="m260.48032 227.8727l75.1181 0l0 40.440964l-75.1181 0z" fill-rule="nonzero"></path><path fill="#000000" d="m283.95062 251.4038l1.640625 0.21875q-0.265625 1.6875 -1.375 2.65625q-1.109375 0.953125 -2.734375 0.953125q-2.015625 0 -3.25 -1.3125q-1.21875 -1.328125 -1.21875 -3.796875q0 -1.59375 0.515625 -2.78125q0.53125 -1.203125 1.609375 -1.796875q1.09375 -0.609375 2.359375 -0.609375q1.609375 0 2.625 0.8125q1.015625 0.8125 1.3125 2.3125l-1.625 0.25q-0.234375 -1.0 -0.828125 -1.5q-0.59375 -0.5 -1.421875 -0.5q-1.265625 0 -2.0625 0.90625q-0.78125 0.90625 -0.78125 2.859375q0 1.984375 0.765625 2.890625q0.765625 0.890625 1.984375 0.890625q0.984375 0 1.640625 -0.59375q0.65625 -0.609375 0.84375 -1.859375zm2.859375 3.609375l0 -13.59375l1.671875 0l0 13.59375l-1.671875 0zm4.191681 -11.6875l0 -1.90625l1.671875 0l0 1.90625l-1.671875 0zm0 11.6875l0 -9.859375l1.671875 0l0 9.859375l-1.671875 0zm10.879211 -3.171875l1.71875 0.21875q-0.40625 1.5 -1.515625 2.34375q-1.09375 0.828125 -2.8125 0.828125q-2.15625 0 -3.421875 -1.328125q-1.265625 -1.328125 -1.265625 -3.734375q0 -2.484375 1.265625 -3.859375q1.28125 -1.375 3.328125 -1.375q1.984375 0 3.234375 1.34375q1.25 1.34375 1.25 3.796875q0 0.140625 -0.015625 0.4375l-7.34375 0q0.09375 1.625 0.921875 2.484375q0.828125 0.859375 2.0625 0.859375q0.90625 0 1.546875 -0.46875q0.65625 -0.484375 1.046875 -1.546875zm-5.484375 -2.703125l5.5 0q-0.109375 -1.234375 -0.625 -1.859375q-0.796875 -0.96875 -2.078125 -0.96875q-1.140625 0 -1.9375 0.78125q-0.78125 0.765625 -0.859375 2.046875zm9.110077 5.875l0 -9.859375l1.5 0l0 1.40625q1.09375 -1.625 3.140625 -1.625q0.890625 0 1.640625 0.328125q0.75 0.3125 1.109375 0.84375q0.375 0.515625 0.53125 1.21875q0.09375 0.46875 0.09375 1.625l0 6.0625l-1.671875 0l0 -6.0q0 -1.015625 -0.203125 -1.515625q-0.1875 -0.515625 -0.6875 -0.8125q-0.5 -0.296875 -1.171875 -0.296875q-1.0625 0 -1.84375 0.671875q-0.765625 0.671875 -0.765625 2.578125l0 5.375l-1.671875 0zm14.031982 -1.5l0.234375 1.484375q-0.703125 0.140625 -1.265625 0.140625q-0.90625 0 -1.40625 -0.28125q-0.5 -0.296875 -0.703125 -0.75q-0.203125 -0.46875 -0.203125 -1.984375l0 -5.65625l-1.234375 0l0 -1.3125l1.234375 0l0 -2.4375l1.65625 -1.0l0 3.4375l1.6875 0l0 1.3125l-1.6875 0l0 5.75q0 0.71875 0.078125 0.921875q0.09375 0.203125 0.296875 0.328125q0.203125 0.125 0.578125 0.125q0.265625 0 0.734375 -0.078125z" fill-rule="nonzero"></path><path fill="#d9ead3" d="m65.75328 411.2454l75.1181 0l0 40.44095l-75.1181 0z" fill-rule="nonzero"></path><path stroke="#000000" stroke-width="1.0" stroke-linejoin="round" stroke-linecap="butt" d="m65.75328 411.2454l75.1181 0l0 40.44095l-75.1181 0z" fill-rule="nonzero"></path><path fill="#000000" d="m85.53747 438.38586l0 -1.25q-0.9375 1.46875 -2.75 1.46875q-1.171875 0 -2.171875 -0.640625q-0.984375 -0.65625 -1.53125 -1.8125q-0.53125 -1.171875 -0.53125 -2.6875q0 -1.46875 0.484375 -2.671875q0.5 -1.203125 1.46875 -1.84375q0.984375 -0.640625 2.203125 -0.640625q0.890625 0 1.578125 0.375q0.703125 0.375 1.140625 0.984375l0 -4.875l1.65625 0l0 13.59375l-1.546875 0zm-5.28125 -4.921875q0 1.890625 0.796875 2.828125q0.8125 0.9375 1.890625 0.9375q1.09375 0 1.859375 -0.890625q0.765625 -0.890625 0.765625 -2.734375q0 -2.015625 -0.78125 -2.953125q-0.78125 -0.953125 -1.921875 -0.953125q-1.109375 0 -1.859375 0.90625q-0.75 0.90625 -0.75 2.859375zm10.813217 4.921875l-1.546875 0l0 -13.59375l1.65625 0l0 4.84375q1.0625 -1.328125 2.703125 -1.328125q0.90625 0 1.71875 0.375q0.8125 0.359375 1.328125 1.03125q0.53125 0.65625 0.828125 1.59375q0.296875 0.9375 0.296875 2.0q0 2.53125 -1.25 3.921875q-1.25 1.375 -3.0 1.375q-1.75 0 -2.734375 -1.453125l0 1.234375zm-0.015625 -5.0q0 1.765625 0.46875 2.5625q0.796875 1.28125 2.140625 1.28125q1.09375 0 1.890625 -0.9375q0.796875 -0.953125 0.796875 -2.84375q0 -1.921875 -0.765625 -2.84375q-0.765625 -0.921875 -1.84375 -0.921875q-1.09375 0 -1.890625 0.953125q-0.796875 0.953125 -0.796875 2.75zm7.594467 5.234375l3.9375 -14.0625l1.34375 0l-3.9375 14.0625l-1.34375 0zm12.870804 -1.453125q-0.9375 0.796875 -1.796875 1.125q-0.859375 0.3125 -1.84375 0.3125q-1.609375 0 -2.484375 -0.78125q-0.875 -0.796875 -0.875 -2.03125q0 -0.734375 0.328125 -1.328125q0.328125 -0.59375 0.859375 -0.953125q0.53125 -0.359375 1.203125 -0.546875q0.5 -0.140625 1.484375 -0.25q2.03125 -0.25 2.984375 -0.578125q0 -0.34375 0 -0.4375q0 -1.015625 -0.46875 -1.4375q-0.640625 -0.5625 -1.90625 -0.5625q-1.171875 0 -1.734375 0.40625q-0.5625 0.40625 -0.828125 1.46875l-1.640625 -0.234375q0.234375 -1.046875 0.734375 -1.6875q0.515625 -0.640625 1.46875 -0.984375q0.96875 -0.359375 2.25 -0.359375q1.265625 0 2.046875 0.296875q0.78125 0.296875 1.15625 0.75q0.375 0.453125 0.515625 1.140625q0.09375 0.421875 0.09375 1.53125l0 2.234375q0 2.328125 0.09375 2.953125q0.109375 0.609375 0.4375 1.171875l-1.75 0q-0.265625 -0.515625 -0.328125 -1.21875zm-0.140625 -3.71875q-0.90625 0.359375 -2.734375 0.625q-1.03125 0.140625 -1.453125 0.328125q-0.421875 0.1875 -0.65625 0.546875q-0.234375 0.359375 -0.234375 0.796875q0 0.671875 0.5 1.125q0.515625 0.4375 1.484375 0.4375q0.96875 0 1.71875 -0.421875q0.75 -0.4375 1.109375 -1.15625q0.265625 -0.578125 0.265625 -1.671875l0 -0.609375zm4.078842 8.71875l0 -13.640625l1.53125 0l0 1.28125q0.53125 -0.75 1.203125 -1.125q0.6875 -0.375 1.640625 -0.375q1.265625 0 2.234375 0.65625q0.96875 0.640625 1.453125 1.828125q0.5 1.1875 0.5 2.59375q0 1.515625 -0.546875 2.734375q-0.546875 1.203125 -1.578125 1.84375q-1.03125 0.640625 -2.171875 0.640625q-0.84375 0 -1.515625 -0.34375q-0.65625 -0.359375 -1.078125 -0.890625l0 4.796875l-1.671875 0zm1.515625 -8.65625q0 1.90625 0.765625 2.8125q0.78125 0.90625 1.875 0.90625q1.109375 0 1.890625 -0.9375q0.796875 -0.9375 0.796875 -2.921875q0 -1.875 -0.78125 -2.8125q-0.765625 -0.9375 -1.84375 -0.9375q-1.0625 0 -1.890625 1.0q-0.8125 1.0 -0.8125 2.890625zm8.875717 -6.8125l0 -1.90625l1.671875 0l0 1.90625l-1.671875 0zm0 11.6875l0 -9.859375l1.671875 0l0 9.859375l-1.671875 0z" fill-rule="nonzero"></path><path fill="#000000" fill-opacity="0.0" d="m298.03937 268.31366l-194.74016 142.92911" fill-rule="nonzero"></path><path stroke="#595959" stroke-width="1.0" stroke-linejoin="round" stroke-linecap="butt" d="m298.03937 268.31366l-189.90314 139.379" fill-rule="evenodd"></path><path fill="#595959" stroke="#595959" stroke-width="1.0" stroke-linecap="butt" d="m107.15892 406.36108l-2.6811676 4.0167236l4.6357803 -1.3535767z" fill-rule="evenodd"></path><path fill="#000000" fill-opacity="0.0" d="m298.03937 268.31366l179.74805 142.92911" fill-rule="nonzero"></path><path stroke="#595959" stroke-width="1.0" stroke-linejoin="round" stroke-linecap="butt" d="m298.03937 268.31366l175.05176 139.19482" fill-rule="evenodd"></path><path fill="#595959" stroke="#595959" stroke-width="1.0" stroke-linecap="butt" d="m472.0631 408.8013l4.5800476 1.5316162l-2.5240173 -4.117279z" fill-rule="evenodd"></path><path fill="#000000" fill-opacity="0.0" d="m298.03937 268.31366l358.6772 142.92911" fill-rule="nonzero"></path><path stroke="#595959" stroke-width="1.0" stroke-linejoin="round" stroke-linecap="butt" d="m298.03937 268.31366l353.1034 140.70804" fill-rule="evenodd"></path><path fill="#595959" stroke="#595959" stroke-width="1.0" stroke-linecap="butt" d="m650.5313 410.5561l4.8271484 0.14550781l-3.604248 -3.2142944z" fill-rule="evenodd"></path><path fill="#000000" fill-opacity="0.0" d="m106.43307 301.02625l111.37008 0l0 32.409454l-111.37008 0z" fill-rule="nonzero"></path><path fill="#000000" d="m122.51119 327.94626l-1.671875 0l0 -10.640625q-0.59375 0.578125 -1.578125 1.15625q-0.984375 0.5625 -1.765625 0.859375l0 -1.625q1.40625 -0.65625 2.453125 -1.59375q1.046875 -0.9375 1.484375 -1.8125l1.078125 0l0 13.65625zm5.016342 0l0 -1.90625l1.9062576 0l0 1.90625l-1.9062576 0zm16.28849 0l0 -1.25q-0.9375 1.46875 -2.75 1.46875q-1.171875 0 -2.171875 -0.640625q-0.984375 -0.65625 -1.53125 -1.8125q-0.53125 -1.171875 -0.53125 -2.6875q0 -1.46875 0.484375 -2.671875q0.5 -1.203125 1.46875 -1.84375q0.984375 -0.640625 2.203125 -0.640625q0.890625 0 1.578125 0.375q0.703125 0.375 1.140625 0.984375l0 -4.875l1.65625 0l0 13.59375l-1.546875 0zm-5.28125 -4.921875q0 1.890625 0.796875 2.828125q0.8125 0.9375 1.890625 0.9375q1.09375 0 1.859375 -0.890625q0.765625 -0.890625 0.765625 -2.734375q0 -2.015625 -0.78125 -2.953125q-0.78125 -0.953125 -1.921875 -0.953125q-1.109375 0 -1.859375 0.90625q-0.75 0.90625 -0.75 2.859375zm9.281967 -6.765625l0 -1.90625l1.671875 0l0 1.90625l-1.671875 0zm0 11.6875l0 -9.859375l1.671875 0l0 9.859375l-1.671875 0zm3.4573212 -2.9375l1.65625 -0.265625q0.140625 1.0 0.765625 1.53125q0.640625 0.515625 1.78125 0.515625q1.15625 0 1.703125 -0.46875q0.5625 -0.46875 0.5625 -1.09375q0 -0.5625 -0.484375 -0.890625q-0.34375 -0.21875 -1.703125 -0.5625q-1.84375 -0.46875 -2.5625 -0.796875q-0.703125 -0.34375 -1.078125 -0.9375q-0.359375 -0.609375 -0.359375 -1.328125q0 -0.65625 0.296875 -1.21875q0.3125 -0.5625 0.828125 -0.9375q0.390625 -0.28125 1.0625 -0.484375q0.671875 -0.203125 1.4375 -0.203125q1.171875 0 2.046875 0.34375q0.875 0.328125 1.28125 0.90625q0.421875 0.5625 0.578125 1.515625l-1.625 0.21875q-0.109375 -0.75 -0.65625 -1.171875q-0.53125 -0.4375 -1.5 -0.4375q-1.15625 0 -1.640625 0.390625q-0.484375 0.375 -0.484375 0.875q0 0.328125 0.203125 0.59375q0.203125 0.265625 0.640625 0.4375q0.25 0.09375 1.46875 0.4375q1.765625 0.46875 2.46875 0.765625q0.703125 0.296875 1.09375 0.875q0.40625 0.578125 0.40625 1.4375q0 0.828125 -0.484375 1.578125q-0.484375 0.734375 -1.40625 1.140625q-0.921875 0.390625 -2.078125 0.390625q-1.921875 0 -2.9375 -0.796875q-1.0 -0.796875 -1.28125 -2.359375zm16.4375 -0.671875l1.640625 0.21875q-0.265625 1.6875 -1.375 2.65625q-1.109375 0.953125 -2.734375 0.953125q-2.015625 0 -3.25 -1.3125q-1.21875 -1.328125 -1.21875 -3.796875q0 -1.59375 0.515625 -2.78125q0.53125 -1.203125 1.609375 -1.796875q1.09375 -0.609375 2.359375 -0.609375q1.609375 0 2.625 0.8125q1.015625 0.8125 1.3125 2.3125l-1.625 0.25q-0.234375 -1.0 -0.828125 -1.5q-0.59375 -0.5 -1.421875 -0.5q-1.265625 0 -2.0625 0.90625q-0.78125 0.90625 -0.78125 2.859375q0 1.984375 0.765625 2.890625q0.765625 0.890625 1.984375 0.890625q0.984375 0 1.640625 -0.59375q0.65625 -0.609375 0.84375 -1.859375zm2.265625 -1.3125q0 -2.734375 1.53125 -4.0625q1.265625 -1.09375 3.09375 -1.09375q2.03125 0 3.3125 1.34375q1.296875 1.328125 1.296875 3.671875q0 1.90625 -0.578125 3.0q-0.5625 1.078125 -1.65625 1.6875q-1.078125 0.59375 -2.375 0.59375q-2.0625 0 -3.34375 -1.328125q-1.28125 -1.328125 -1.28125 -3.8125zm1.71875 0q0 1.890625 0.828125 2.828125q0.828125 0.9375 2.078125 0.9375q1.25 0 2.0625 -0.9375q0.828125 -0.953125 0.828125 -2.890625q0 -1.828125 -0.828125 -2.765625q-0.828125 -0.9375 -2.0625 -0.9375q-1.25 0 -2.078125 0.9375q-0.828125 0.9375 -0.828125 2.828125zm12.016342 4.921875l-3.75 -9.859375l1.765625 0l2.125 5.90625q0.34375 0.953125 0.625 1.984375q0.21875 -0.78125 0.625 -1.875l2.1875 -6.015625l1.71875 0l-3.734375 9.859375l-1.5625 0zm13.34375 -3.171875l1.71875 0.21875q-0.40625 1.5 -1.515625 2.34375q-1.09375 0.828125 -2.8125 0.828125q-2.15625 0 -3.421875 -1.328125q-1.265625 -1.328125 -1.265625 -3.734375q0 -2.484375 1.265625 -3.859375q1.28125 -1.375 3.328125 -1.375q1.984375 0 3.234375 1.34375q1.25 1.34375 1.25 3.796875q0 0.140625 -0.015625 0.4375l-7.34375 0q0.09375 1.625 0.921875 2.484375q0.828125 0.859375 2.0625 0.859375q0.90625 0 1.546875 -0.46875q0.65625 -0.484375 1.046875 -1.546875zm-5.484375 -2.703125l5.5 0q-0.109375 -1.234375 -0.625 -1.859375q-0.796875 -0.96875 -2.078125 -0.96875q-1.140625 0 -1.9375 0.78125q-0.78125 0.765625 -0.859375 2.046875zm9.094467 5.875l0 -9.859375l1.5 0l0 1.5q0.578125 -1.046875 1.0625 -1.375q0.484375 -0.34375 1.078125 -0.34375q0.84375 0 1.71875 0.546875l-0.578125 1.546875q-0.609375 -0.359375 -1.234375 -0.359375q-0.546875 0 -0.984375 0.328125q-0.421875 0.328125 -0.609375 0.90625q-0.28125 0.890625 -0.28125 1.953125l0 5.15625l-1.671875 0z" fill-rule="nonzero"></path><path fill="#000000" fill-opacity="0.0" d="m445.85303 301.02625l111.370056 0l0 32.409454l-111.370056 0z" fill-rule="nonzero"></path><path fill="#000000" d="m455.6499 324.3525l1.671875 -0.21875q0.28125 1.421875 0.96875 2.046875q0.703125 0.625 1.6875 0.625q1.1875 0 2.0 -0.8125q0.8125 -0.828125 0.8125 -2.03125q0 -1.140625 -0.765625 -1.890625q-0.75 -0.75 -1.90625 -0.75q-0.46875 0 -1.171875 0.1875l0.1875 -1.46875q0.15625 0.015625 0.265625 0.015625q1.0625 0 1.90625 -0.546875q0.859375 -0.5625 0.859375 -1.71875q0 -0.921875 -0.625 -1.515625q-0.609375 -0.609375 -1.59375 -0.609375q-0.96875 0 -1.625 0.609375q-0.640625 0.609375 -0.828125 1.84375l-1.671875 -0.296875q0.296875 -1.6875 1.375 -2.609375q1.09375 -0.921875 2.71875 -0.921875q1.109375 0 2.046875 0.484375q0.9375 0.46875 1.421875 1.296875q0.5 0.828125 0.5 1.75q0 0.890625 -0.46875 1.609375q-0.46875 0.71875 -1.40625 1.15625q1.21875 0.265625 1.875 1.15625q0.671875 0.875 0.671875 2.1875q0 1.78125 -1.296875 3.015625q-1.296875 1.234375 -3.28125 1.234375q-1.796875 0 -2.984375 -1.0625q-1.171875 -1.0625 -1.34375 -2.765625zm11.297577 3.59375l0 -1.90625l1.90625 0l0 1.90625l-1.90625 0zm9.600983 0.8125l1.609375 0.25q0.109375 0.75 0.578125 1.09375q0.609375 0.453125 1.6875 0.453125q1.171875 0 1.796875 -0.46875q0.625 -0.453125 0.859375 -1.28125q0.125 -0.515625 0.109375 -2.15625q-1.09375 1.296875 -2.71875 1.296875q-2.03125 0 -3.15625 -1.46875q-1.109375 -1.46875 -1.109375 -3.515625q0 -1.40625 0.515625 -2.59375q0.515625 -1.203125 1.484375 -1.84375q0.96875 -0.65625 2.265625 -0.65625q1.75 0 2.875 1.40625l0 -1.1875l1.546875 0l0 8.515625q0 2.3125 -0.46875 3.265625q-0.46875 0.96875 -1.484375 1.515625q-1.015625 0.5625 -2.5 0.5625q-1.765625 0 -2.859375 -0.796875q-1.078125 -0.796875 -1.03125 -2.390625zm1.375 -5.921875q0 1.953125 0.765625 2.84375q0.78125 0.890625 1.9375 0.890625q1.140625 0 1.921875 -0.890625q0.78125 -0.890625 0.78125 -2.78125q0 -1.8125 -0.8125 -2.71875q-0.796875 -0.921875 -1.921875 -0.921875q-1.109375 0 -1.890625 0.90625q-0.78125 0.890625 -0.78125 2.671875zm16.047607 1.9375l1.71875 0.21875q-0.40625 1.5 -1.515625 2.34375q-1.09375 0.828125 -2.8125 0.828125q-2.15625 0 -3.421875 -1.328125q-1.265625 -1.328125 -1.265625 -3.734375q0 -2.484375 1.265625 -3.859375q1.28125 -1.375 3.328125 -1.375q1.984375 0 3.234375 1.34375q1.25 1.34375 1.25 3.796875q0 0.140625 -0.015625 0.4375l-7.34375 0q0.09375 1.625 0.921875 2.484375q0.828125 0.859375 2.0625 0.859375q0.90625 0 1.546875 -0.46875q0.65625 -0.484375 1.046875 -1.546875zm-5.484375 -2.703125l5.5 0q-0.109375 -1.234375 -0.625 -1.859375q-0.796875 -0.96875 -2.078125 -0.96875q-1.140625 0 -1.9375 0.78125q-0.78125 0.765625 -0.859375 2.046875zm12.766327 4.375l0.234375 1.484375q-0.703125 0.140625 -1.265625 0.140625q-0.90625 0 -1.40625 -0.28125q-0.5 -0.296875 -0.703125 -0.75q-0.203125 -0.46875 -0.203125 -1.984375l0 -5.65625l-1.234375 0l0 -1.3125l1.234375 0l0 -2.4375l1.65625 -1.0l0 3.4375l1.6875 0l0 1.3125l-1.6875 0l0 5.75q0 0.71875 0.078125 0.921875q0.09375 0.203125 0.296875 0.328125q0.203125 0.125 0.578125 0.125q0.265625 0 0.734375 -0.078125zm0.2770691 1.734375l3.9375 -14.0625l1.34375 0l-3.9375 14.0625l-1.34375 0zm6.4332886 3.546875l0 -13.640625l1.53125 0l0 1.28125q0.53125 -0.75 1.203125 -1.125q0.6875 -0.375 1.640625 -0.375q1.265625 0 2.234375 0.65625q0.96875 0.640625 1.453125 1.828125q0.5 1.1875 0.5 2.59375q0 1.515625 -0.546875 2.734375q-0.546875 1.203125 -1.578125 1.84375q-1.03125 0.640625 -2.171875 0.640625q-0.84375 0 -1.515625 -0.34375q-0.65625 -0.359375 -1.078125 -0.890625l0 4.796875l-1.671875 0zm1.515625 -8.65625q0 1.90625 0.765625 2.8125q0.78125 0.90625 1.875 0.90625q1.109375 0 1.890625 -0.9375q0.796875 -0.9375 0.796875 -2.921875q0 -1.875 -0.78125 -2.8125q-0.765625 -0.9375 -1.84375 -0.9375q-1.0625 0 -1.890625 1.0q-0.8125 1.0 -0.8125 2.890625zm15.313232 4.875l0 -1.453125q-1.140625 1.671875 -3.125 1.671875q-0.859375 0 -1.625 -0.328125q-0.75 -0.34375 -1.125 -0.84375q-0.359375 -0.5 -0.515625 -1.234375q-0.09375 -0.5 -0.09375 -1.5625l0 -6.109375l1.671875 0l0 5.46875q0 1.3125 0.09375 1.765625q0.15625 0.65625 0.671875 1.03125q0.515625 0.375 1.265625 0.375q0.75 0 1.40625 -0.375q0.65625 -0.390625 0.921875 -1.046875q0.28125 -0.671875 0.28125 -1.9375l0 -5.28125l1.671875 0l0 9.859375l-1.5 0zm7.5788574 -1.5l0.234375 1.484375q-0.703125 0.140625 -1.265625 0.140625q-0.90625 0 -1.40625 -0.28125q-0.5 -0.296875 -0.703125 -0.75q-0.203125 -0.46875 -0.203125 -1.984375l0 -5.65625l-1.234375 0l0 -1.3125l1.234375 0l0 -2.4375l1.65625 -1.0l0 3.4375l1.6875 0l0 1.3125l-1.6875 0l0 5.75q0 0.71875 0.078125 0.921875q0.09375 0.203125 0.296875 0.328125q0.203125 0.125 0.578125 0.125q0.265625 0 0.734375 -0.078125z" fill-rule="nonzero"></path><path fill="#000000" fill-opacity="0.0" d="m308.41995 146.15486l146.77164 0l0 32.40944l-146.77164 0z" fill-rule="nonzero"></path><path fill="#000000" d="m326.98245 171.46548l0 1.609375l-8.984375 0q-0.015625 -0.609375 0.1875 -1.15625q0.34375 -0.921875 1.09375 -1.8125q0.765625 -0.890625 2.1875 -2.0625q2.21875 -1.8125 3.0 -2.875q0.78125 -1.0625 0.78125 -2.015625q0 -0.984375 -0.71875 -1.671875q-0.703125 -0.6875 -1.84375 -0.6875q-1.203125 0 -1.9375 0.734375q-0.71875 0.71875 -0.71875 2.0l-1.71875 -0.171875q0.171875 -1.921875 1.328125 -2.921875q1.15625 -1.015625 3.09375 -1.015625q1.953125 0 3.09375 1.09375q1.140625 1.078125 1.140625 2.6875q0 0.8125 -0.34375 1.609375q-0.328125 0.78125 -1.109375 1.65625q-0.765625 0.859375 -2.5625 2.390625q-1.5 1.265625 -1.9375 1.71875q-0.421875 0.4375 -0.703125 0.890625l6.671875 0zm2.531952 1.609375l0 -1.90625l1.90625 0l0 1.90625l-1.90625 0zm9.882233 0l0 -9.859375l1.5 0l0 1.5q0.578125 -1.046875 1.0625 -1.375q0.484375 -0.34375 1.078125 -0.34375q0.84375 0 1.71875 0.546875l-0.578125 1.546875q-0.609375 -0.359375 -1.234375 -0.359375q-0.546875 0 -0.984375 0.328125q-0.421875 0.328125 -0.609375 0.90625q-0.28125 0.890625 -0.28125 1.953125l0 5.15625l-1.671875 0zm12.978302 -3.171875l1.71875 0.21875q-0.40625 1.5 -1.515625 2.34375q-1.09375 0.828125 -2.8125 0.828125q-2.15625 0 -3.421875 -1.328125q-1.265625 -1.328125 -1.265625 -3.734375q0 -2.484375 1.265625 -3.859375q1.28125 -1.375 3.328125 -1.375q1.984375 0 3.234375 1.34375q1.25 1.34375 1.25 3.796875q0 0.140625 -0.015625 0.4375l-7.34375 0q0.09375 1.625 0.921875 2.484375q0.828125 0.859375 2.0625 0.859375q0.90625 0 1.546875 -0.46875q0.65625 -0.484375 1.046875 -1.546875zm-5.484375 -2.703125l5.5 0q-0.109375 -1.234375 -0.625 -1.859375q-0.796875 -0.96875 -2.078125 -0.96875q-1.140625 0 -1.9375 0.78125q-0.78125 0.765625 -0.859375 2.046875zm9.110107 5.875l0 -9.859375l1.5 0l0 1.40625q1.09375 -1.625 3.140625 -1.625q0.890625 0 1.640625 0.328125q0.75 0.3125 1.109375 0.84375q0.375 0.515625 0.53125 1.21875q0.09375 0.46875 0.09375 1.625l0 6.0625l-1.671875 0l0 -6.0q0 -1.015625 -0.203125 -1.515625q-0.1875 -0.515625 -0.6875 -0.8125q-0.5 -0.296875 -1.171875 -0.296875q-1.0625 0 -1.84375 0.671875q-0.765625 0.671875 -0.765625 2.578125l0 5.375l-1.671875 0zm16.766327 0l0 -1.25q-0.9375 1.46875 -2.75 1.46875q-1.171875 0 -2.171875 -0.640625q-0.984375 -0.65625 -1.53125 -1.8125q-0.53125 -1.171875 -0.53125 -2.6875q0 -1.46875 0.484375 -2.671875q0.5 -1.203125 1.46875 -1.84375q0.984375 -0.640625 2.203125 -0.640625q0.890625 0 1.578125 0.375q0.703125 0.375 1.140625 0.984375l0 -4.875l1.65625 0l0 13.59375l-1.546875 0zm-5.28125 -4.921875q0 1.890625 0.796875 2.828125q0.8125 0.9375 1.890625 0.9375q1.09375 0 1.859375 -0.890625q0.765625 -0.890625 0.765625 -2.734375q0 -2.015625 -0.78125 -2.953125q-0.78125 -0.953125 -1.921875 -0.953125q-1.109375 0 -1.859375 0.90625q-0.75 0.90625 -0.75 2.859375zm16.016357 1.75l1.71875 0.21875q-0.40625 1.5 -1.515625 2.34375q-1.09375 0.828125 -2.8125 0.828125q-2.15625 0 -3.421875 -1.328125q-1.265625 -1.328125 -1.265625 -3.734375q0 -2.484375 1.265625 -3.859375q1.28125 -1.375 3.328125 -1.375q1.984375 0 3.234375 1.34375q1.25 1.34375 1.25 3.796875q0 0.140625 -0.015625 0.4375l-7.34375 0q0.09375 1.625 0.921875 2.484375q0.828125 0.859375 2.0625 0.859375q0.90625 0 1.546875 -0.46875q0.65625 -0.484375 1.046875 -1.546875zm-5.484375 -2.703125l5.5 0q-0.109375 -1.234375 -0.625 -1.859375q-0.796875 -0.96875 -2.078125 -0.96875q-1.140625 0 -1.9375 0.78125q-0.78125 0.765625 -0.859375 2.046875zm8.235077 5.875l0 -1.359375l6.265625 -7.1875q-1.0625 0.046875 -1.875 0.046875l-4.015625 0l0 -1.359375l8.046875 0l0 1.109375l-5.34375 6.25l-1.015625 1.140625q1.109375 -0.078125 2.09375 -0.078125l4.5625 0l0 1.4375l-8.71875 0zm12.9375 0l-3.75 -9.859375l1.765625 0l2.125 5.90625q0.34375 0.953125 0.625 1.984375q0.21875 -0.78125 0.625 -1.875l2.1875 -6.015625l1.71875 0l-3.734375 9.859375l-1.5625 0zm5.96875 -4.921875q0 -2.734375 1.53125 -4.0625q1.265625 -1.09375 3.09375 -1.09375q2.03125 0 3.3125 1.34375q1.296875 1.328125 1.296875 3.671875q0 1.90625 -0.578125 3.0q-0.5625 1.078125 -1.65625 1.6875q-1.078125 0.59375 -2.375 0.59375q-2.0625 0 -3.34375 -1.328125q-1.28125 -1.328125 -1.28125 -3.8125zm1.71875 0q0 1.890625 0.828125 2.828125q0.828125 0.9375 2.078125 0.9375q1.25 0 2.0625 -0.9375q0.828125 -0.953125 0.828125 -2.890625q0 -1.828125 -0.828125 -2.765625q-0.828125 -0.9375 -2.0625 -0.9375q-1.25 0 -2.078125 0.9375q-0.828125 0.9375 -0.828125 2.828125zm15.735107 4.921875l0 -1.453125q-1.140625 1.671875 -3.125 1.671875q-0.859375 0 -1.625 -0.328125q-0.75 -0.34375 -1.125 -0.84375q-0.359375 -0.5 -0.515625 -1.234375q-0.09375 -0.5 -0.09375 -1.5625l0 -6.109375l1.671875 0l0 5.46875q0 1.3125 0.09375 1.765625q0.15625 0.65625 0.671875 1.03125q0.515625 0.375 1.265625 0.375q0.75 0 1.40625 -0.375q0.65625 -0.390625 0.921875 -1.046875q0.28125 -0.671875 0.28125 -1.9375l0 -5.28125l1.671875 0l0 9.859375l-1.5 0zm3.250702 -2.9375l1.65625 -0.265625q0.140625 1.0 0.765625 1.53125q0.640625 0.515625 1.78125 0.515625q1.15625 0 1.703125 -0.46875q0.5625 -0.46875 0.5625 -1.09375q0 -0.5625 -0.484375 -0.890625q-0.34375 -0.21875 -1.703125 -0.5625q-1.84375 -0.46875 -2.5625 -0.796875q-0.703125 -0.34375 -1.078125 -0.9375q-0.359375 -0.609375 -0.359375 -1.328125q0 -0.65625 0.296875 -1.21875q0.3125 -0.5625 0.828125 -0.9375q0.390625 -0.28125 1.0625 -0.484375q0.671875 -0.203125 1.4375 -0.203125q1.171875 0 2.046875 0.34375q0.875 0.328125 1.28125 0.90625q0.421875 0.5625 0.578125 1.515625l-1.625 0.21875q-0.109375 -0.75 -0.65625 -1.171875q-0.53125 -0.4375 -1.5 -0.4375q-1.15625 0 -1.640625 0.390625q-0.484375 0.375 -0.484375 0.875q0 0.328125 0.203125 0.59375q0.203125 0.265625 0.640625 0.4375q0.25 0.09375 1.46875 0.4375q1.765625 0.46875 2.46875 0.765625q0.703125 0.296875 1.09375 0.875q0.40625 0.578125 0.40625 1.4375q0 0.828125 -0.484375 1.578125q-0.484375 0.734375 -1.40625 1.140625q-0.921875 0.390625 -2.078125 0.390625q-1.921875 0 -2.9375 -0.796875q-1.0 -0.796875 -1.28125 -2.359375z" fill-rule="nonzero"></path></g></svg>

