<?xml version="1.0" encoding="UTF-8" standalone="no"?><!DOCTYPE svg PUBLIC "-//W3C//DTD SVG 1.1//EN" "http://www.w3.org/Graphics/SVG/1.1/DTD/svg11.dtd"><!-- Generated by graphviz version 2.40.1 (20161225.0304)
 --><!-- Title: %0 Pages: 1 --><svg xmlns="http://www.w3.org/2000/svg" xmlns:xlink="http://www.w3.org/1999/xlink" width="671pt" height="971pt" viewBox="0.00 0.00 671.08 971.20">
<g id="graph0" class="graph" transform="scale(1 1) rotate(0) translate(4 967.2)">
<title>%0</title>
<polygon fill="#ffffff" stroke="transparent" points="-4,4 -4,-967.2 667.0838,-967.2 667.0838,4 -4,4"/>
<!-- invisiblestart -->
<g id="node1" class="node">
<title>invisiblestart</title>
<ellipse fill="none" stroke="#ffffff" cx="68.5192" cy="-945.2" rx="27" ry="18"/>
</g>
<!-- uncommitted -->
<g id="node2" class="node">
<title>uncommitted</title>
<polygon fill="#d3d3d3" stroke="#000000" points="137.0576,-874.2019 -.0192,-874.2019 -.0192,-832.9981 137.0576,-832.9981 137.0576,-874.2019"/>
<text text-anchor="start" x="8" y="-857.8" font-family="Times,serif" font-size="14.00" fill="#000000">container request:</text>
<text text-anchor="start" x="8" y="-841" font-family="Times,serif" font-size="14.00" fill="#000000">   state=Uncommitted</text>
</g>
<!-- invisiblestart&#45;&gt;uncommitted -->
<g id="edge1" class="edge">
<title>invisiblestart-&gt;uncommitted</title>
<path fill="none" stroke="#000080" d="M68.5192,-927.1028C68.5192,-914.9708 68.5192,-898.6846 68.5192,-884.526"/>
<polygon fill="#000080" stroke="#000080" points="72.0193,-884.2174 68.5192,-874.2175 65.0193,-884.2175 72.0193,-884.2174"/>
<text text-anchor="middle" x="151.1115" y="-896.6" font-family="Times,serif" font-size="14.00" fill="#000080">user creates container request</text>
</g>
<!-- committed -->
<g id="node3" class="node">
<title>committed</title>
<polygon fill="#ffffff" stroke="#000000" points="276.073,-763.4014 152.9654,-763.4014 152.9654,-704.5986 276.073,-704.5986 276.073,-763.4014"/>
<text text-anchor="start" x="160.9923" y="-746.6" font-family="Times,serif" font-size="14.00" fill="#000000">container request:</text>
<text text-anchor="start" x="160.9923" y="-729.8" font-family="Times,serif" font-size="14.00" fill="#000000">   state=Committed</text>
<text text-anchor="start" x="160.9923" y="-713" font-family="Times,serif" font-size="14.00" fill="#000000">   priority&gt;0</text>
</g>
<!-- uncommitted&#45;&gt;committed -->
<g id="edge2" class="edge">
<title>uncommitted-&gt;committed</title>
<path fill="none" stroke="#000080" d="M93.9505,-832.7673C115.1083,-815.4352 145.7089,-790.3679 170.7868,-769.8246"/>
<polygon fill="#000080" stroke="#000080" points="173.1981,-772.3738 178.716,-763.3292 168.7622,-766.9587 173.1981,-772.3738"/>
<text text-anchor="start" x="155.5192" y="-802.2" font-family="Times,serif" font-size="14.00" fill="#000080">user updates to</text>
<text text-anchor="start" x="155.5192" y="-785.4" font-family="Times,serif" font-size="14.00" fill="#000080">state=Committed, priority&gt;0</text>
</g>
<!-- latecancelled -->
<g id="node8" class="node">
<title>latecancelled</title>
<polygon fill="#add8e6" stroke="#000000" points="287.545,-83.7003 171.4934,-83.7003 171.4934,-8.2997 287.545,-8.2997 287.545,-83.7003"/>
<text text-anchor="start" x="179.5063" y="-67" font-family="Times,serif" font-size="14.00" fill="#000000">container request:</text>
<text text-anchor="start" x="179.5063" y="-50.2" font-family="Times,serif" font-size="14.00" fill="#000000">   state=Final</text>
<text text-anchor="start" x="179.5063" y="-33.4" font-family="Times,serif" font-size="14.00" fill="#000000">container:</text>
<text text-anchor="start" x="179.5063" y="-16.6" font-family="Times,serif" font-size="14.00" fill="#000000">   state=Cancelled</text>
</g>
<!-- uncommitted&#45;&gt;latecancelled -->
<!-- queued -->
<g id="node4" class="node">
<title>queued</title>
<polygon fill="#ffffff" stroke="#000000" points="340.073,-635.2 216.9654,-635.2 216.9654,-543.2 340.073,-543.2 340.073,-635.2"/>
<text text-anchor="start" x="224.9923" y="-618.6" font-family="Times,serif" font-size="14.00" fill="#000000">container request:</text>
<text text-anchor="start" x="224.9923" y="-601.8" font-family="Times,serif" font-size="14.00" fill="#000000">   state=Committed</text>
<text text-anchor="start" x="224.9923" y="-585" font-family="Times,serif" font-size="14.00" fill="#000000">   priority&gt;0</text>
<text text-anchor="start" x="224.9923" y="-568.2" font-family="Times,serif" font-size="14.00" fill="#000000">container:</text>
<text text-anchor="start" x="224.9923" y="-551.4" font-family="Times,serif" font-size="14.00" fill="#000000">   state=Queued</text>
</g>
<!-- committed&#45;&gt;queued -->
<g id="edge3" class="edge">
<title>committed-&gt;queued</title>
<path fill="none" stroke="#000000" d="M244.5448,-704.713C249.0836,-699.1171 253.3122,-693.0447 256.5192,-686.8 263.0322,-674.118 267.6303,-659.5353 270.8719,-645.5743"/>
<polygon fill="#000000" stroke="#000000" points="274.346,-646.0636 273.0006,-635.5545 267.4988,-644.6089 274.346,-646.0636"/>
<text text-anchor="start" x="269.5192" y="-674.2" font-family="Times,serif" font-size="14.00" fill="#000000">Arvados creates</text>
<text text-anchor="start" x="269.5192" y="-657.4" font-family="Times,serif" font-size="14.00" fill="#000000">a new container</text>
</g>
<!-- reused -->
<g id="node7" class="node">
<title>reused</title>
<polygon fill="#add8e6" stroke="#000000" points="233.2916,-525.2 67.7468,-525.2 67.7468,-433.2 233.2916,-433.2 233.2916,-525.2"/>
<text text-anchor="start" x="75.8831" y="-508.6" font-family="Times,serif" font-size="14.00" fill="#000000">container request:</text>
<text text-anchor="start" x="75.8831" y="-491.8" font-family="Times,serif" font-size="14.00" fill="#000000">   state=Final</text>
<text text-anchor="start" x="75.8831" y="-475" font-family="Times,serif" font-size="14.00" fill="#000000">container:</text>
<text text-anchor="start" x="75.8831" y="-458.2" font-family="Times,serif" font-size="14.00" fill="#000000">   state=Complete</text>
<text text-anchor="start" x="75.8831" y="-441.4" font-family="Times,serif" font-size="14.00" fill="#000000">(reused existing container)</text>
</g>
<!-- committed&#45;&gt;reused -->
<g id="edge6" class="edge">
<title>committed-&gt;reused</title>
<path fill="none" stroke="#000000" d="M161.5309,-704.6546C155.9369,-699.4355 151.0339,-693.4916 147.564,-686.8 123.3185,-640.0437 127.7131,-579.0294 135.9526,-535.2657"/>
<polygon fill="#000000" stroke="#000000" points="139.4029,-535.8606 137.9363,-525.3677 132.5394,-534.485 139.4029,-535.8606"/>
<text text-anchor="start" x="148.5192" y="-674.2" font-family="Times,serif" font-size="14.00" fill="#000000">Arvados selects an</text>
<text text-anchor="start" x="148.5192" y="-657.4" font-family="Times,serif" font-size="14.00" fill="#000000">existing container</text>
</g>
<!-- containerfinished -->
<g id="node9" class="node">
<title>containerfinished</title>
<polygon fill="#add8e6" stroke="#000000" points="506.4204,-92 390.618,-92 390.618,0 506.4204,0 506.4204,-92"/>
<text text-anchor="start" x="398.5686" y="-75.4" font-family="Times,serif" font-size="14.00" fill="#000000">container request:</text>
<text text-anchor="start" x="398.5686" y="-58.6" font-family="Times,serif" font-size="14.00" fill="#000000">   state=Final</text>
<text text-anchor="start" x="398.5686" y="-41.8" font-family="Times,serif" font-size="14.00" fill="#000000">container:</text>
<text text-anchor="start" x="398.5686" y="-25" font-family="Times,serif" font-size="14.00" fill="#000000">   state=Complete</text>
<text text-anchor="start" x="398.5686" y="-8.2" font-family="Times,serif" font-size="14.00" fill="#000000">   exit_code=0</text>
</g>
<!-- committed&#45;&gt;containerfinished -->
<!-- locked -->
<g id="node5" class="node">
<title>locked</title>
<polygon fill="#ffffff" stroke="#000000" points="390.073,-415.2 266.9654,-415.2 266.9654,-323.2 390.073,-323.2 390.073,-415.2"/>
<text text-anchor="start" x="274.9923" y="-398.6" font-family="Times,serif" font-size="14.00" fill="#000000">container request:</text>
<text text-anchor="start" x="274.9923" y="-381.8" font-family="Times,serif" font-size="14.00" fill="#000000">   state=Committed</text>
<text text-anchor="start" x="274.9923" y="-365" font-family="Times,serif" font-size="14.00" fill="#000000">   priority&gt;0</text>
<text text-anchor="start" x="274.9923" y="-348.2" font-family="Times,serif" font-size="14.00" fill="#000000">container:</text>
<text text-anchor="start" x="274.9923" y="-331.4" font-family="Times,serif" font-size="14.00" fill="#000000">   state=Locked</text>
</g>
<!-- queued&#45;&gt;locked -->
<g id="edge4" class="edge">
<title>queued-&gt;locked</title>
<path fill="none" stroke="#000000" d="M289.0008,-543.0808C296.801,-508.7601 307.4868,-461.7427 315.7801,-425.2522"/>
<polygon fill="#000000" stroke="#000000" points="319.248,-425.7855 318.0514,-415.2585 312.4221,-424.2341 319.248,-425.7855"/>
<text text-anchor="start" x="314.5192" y="-483.4" font-family="Times,serif" font-size="14.00" fill="#000000">Arvados is ready</text>
<text text-anchor="start" x="314.5192" y="-466.6" font-family="Times,serif" font-size="14.00" fill="#000000">to dispatch the container</text>
</g>
<!-- queued&#45;&gt;latecancelled -->
<g id="edge7" class="edge">
<title>queued-&gt;latecancelled</title>
<path fill="none" stroke="#000080" d="M267.3574,-542.8197C254.5187,-486.8824 234.2232,-389.8132 226.5444,-305.2 225.1947,-290.3278 226.4459,-286.533 226.5444,-271.6 226.9481,-210.3694 227.968,-139.7969 228.701,-94.123"/>
<polygon fill="#000080" stroke="#000080" points="232.2038,-93.9747 228.8667,-83.9192 225.2047,-93.861 232.2038,-93.9747"/>
<text text-anchor="start" x="227.5192" y="-292.6" font-family="Times,serif" font-size="14.00" fill="#000080">user updates to</text>
<text text-anchor="start" x="227.5192" y="-275.8" font-family="Times,serif" font-size="14.00" fill="#000080">priority=0</text>
</g>
<!-- running -->
<g id="node6" class="node">
<title>running</title>
<polygon fill="#ffffff" stroke="#000000" points="527.073,-253.6 403.9654,-253.6 403.9654,-161.6 527.073,-161.6 527.073,-253.6"/>
<text text-anchor="start" x="411.9923" y="-237" font-family="Times,serif" font-size="14.00" fill="#000000">container request:</text>
<text text-anchor="start" x="411.9923" y="-220.2" font-family="Times,serif" font-size="14.00" fill="#000000">   state=Committed</text>
<text text-anchor="start" x="411.9923" y="-203.4" font-family="Times,serif" font-size="14.00" fill="#000000">   priority&gt;0</text>
<text text-anchor="start" x="411.9923" y="-186.6" font-family="Times,serif" font-size="14.00" fill="#000000">container:</text>
<text text-anchor="start" x="411.9923" y="-169.8" font-family="Times,serif" font-size="14.00" fill="#000000">   state=Running</text>
</g>
<!-- locked&#45;&gt;running -->
<g id="edge5" class="edge">
<title>locked-&gt;running</title>
<path fill="none" stroke="#000000" d="M367.7779,-322.8919C384.042,-303.7074 403.0136,-281.3293 419.8921,-261.42"/>
<polygon fill="#000000" stroke="#000000" points="422.6949,-263.5264 426.4918,-253.6353 417.3554,-258.9997 422.6949,-263.5264"/>
<text text-anchor="start" x="409.5192" y="-292.6" font-family="Times,serif" font-size="14.00" fill="#000000">Arvados starts the</text>
<text text-anchor="start" x="409.5192" y="-275.8" font-family="Times,serif" font-size="14.00" fill="#000000">container process</text>
</g>
<!-- locked&#45;&gt;latecancelled -->
<g id="edge8" class="edge">
<title>locked-&gt;latecancelled</title>
<path fill="none" stroke="#000080" d="M324.0027,-323.113C321.8451,-306.6992 318.7774,-288.1798 314.5192,-271.6 298.2378,-208.2067 270.1309,-138.0815 250.7207,-93.103"/>
<polygon fill="#000080" stroke="#000080" points="253.9156,-91.673 246.7182,-83.8982 247.4962,-94.4644 253.9156,-91.673"/>
<text text-anchor="start" x="309.5192" y="-211.8" font-family="Times,serif" font-size="14.00" fill="#000080">user updates to</text>
<text text-anchor="start" x="309.5192" y="-195" font-family="Times,serif" font-size="14.00" fill="#000080">priority=0</text>
</g>
<!-- running&#45;&gt;latecancelled -->
<g id="edge9" class="edge">
<title>running-&gt;latecancelled</title>
<path fill="none" stroke="#000080" d="M403.9268,-169.8339C399.0748,-167.008 394.2309,-164.2342 389.5192,-161.6 374.2599,-153.0688 369.1603,-153.1918 354.5444,-143.6 334.8403,-130.669 332.0122,-124.6106 313.5192,-110 305.1484,-103.3866 296.2433,-96.4732 287.4791,-89.7377"/>
<polygon fill="#000080" stroke="#000080" points="289.5559,-86.9197 279.4893,-83.6159 285.2984,-92.4762 289.5559,-86.9197"/>
<text text-anchor="start" x="355.5192" y="-131" font-family="Times,serif" font-size="14.00" fill="#000080">user updates to</text>
<text text-anchor="start" x="355.5192" y="-114.2" font-family="Times,serif" font-size="14.00" fill="#000080">priority=0</text>
</g>
<!-- running&#45;&gt;containerfinished -->
<g id="edge11" class="edge">
<title>running-&gt;containerfinished</title>
<path fill="none" stroke="#000000" d="M448.0423,-161.56C446.3599,-155.5907 444.922,-149.5009 443.9546,-143.6 441.7896,-130.3941 441.3924,-116.0587 441.8791,-102.5441"/>
<polygon fill="#000000" stroke="#000000" points="445.3824,-102.5706 442.4089,-92.4016 438.3919,-102.2054 445.3824,-102.5706"/>
<text text-anchor="start" x="444.5192" y="-131" font-family="Times,serif" font-size="14.00" fill="#000000">container process</text>
<text text-anchor="start" x="444.5192" y="-114.2" font-family="Times,serif" font-size="14.00" fill="#000000">succeeds</text>
</g>
<!-- containerfailed -->
<g id="node10" class="node">
<title>containerfailed</title>
<polygon fill="#add8e6" stroke="#000000" points="646.4204,-92 530.618,-92 530.618,0 646.4204,0 646.4204,-92"/>
<text text-anchor="start" x="538.5686" y="-75.4" font-family="Times,serif" font-size="14.00" fill="#000000">container request:</text>
<text text-anchor="start" x="538.5686" y="-58.6" font-family="Times,serif" font-size="14.00" fill="#000000">   state=Final</text>
<text text-anchor="start" x="538.5686" y="-41.8" font-family="Times,serif" font-size="14.00" fill="#000000">container:</text>
<text text-anchor="start" x="538.5686" y="-25" font-family="Times,serif" font-size="14.00" fill="#000000">   state=Complete</text>
<text text-anchor="start" x="538.5686" y="-8.2" font-family="Times,serif" font-size="14.00" fill="#000000">   exit_code≠0</text>
</g>
<!-- running&#45;&gt;containerfailed -->
<g id="edge10" class="edge">
<title>running-&gt;containerfailed</title>
<path fill="none" stroke="#000000" d="M527.0464,-164.5372C534.1382,-158.0268 540.8477,-150.9952 546.5192,-143.6 556.0963,-131.1122 563.9546,-116.1085 570.1761,-101.6525"/>
<polygon fill="#000000" stroke="#000000" points="573.4704,-102.8439 574.0298,-92.2639 566.9947,-100.1858 573.4704,-102.8439"/>
<text text-anchor="start" x="565.5192" y="-131" font-family="Times,serif" font-size="14.00" fill="#000000">container process</text>
<text text-anchor="start" x="565.5192" y="-114.2" font-family="Times,serif" font-size="14.00" fill="#000000">fails</text>
</g>
<!-- reused&#45;&gt;latecancelled -->
</g>
</svg>