<?xml version="1.0" encoding="UTF-8" standalone="no"?><!DOCTYPE svg PUBLIC "-//W3C//DTD SVG 1.1//EN" "http://www.w3.org/Graphics/SVG/1.1/DTD/svg11.dtd"><!-- Generated by graphviz version 2.40.1 (20161225.0304)
 --><!-- Title: %0 Pages: 1 --><svg xmlns="http://www.w3.org/2000/svg" xmlns:xlink="http://www.w3.org/1999/xlink" width="283pt" height="580pt" viewBox="0.00 0.00 282.67 579.60">
<g id="graph0" class="graph" transform="scale(1 1) rotate(0) translate(4 575.6)">
<title>%0</title>
<polygon fill="#ffffff" stroke="transparent" points="-4,4 -4,-575.6 278.6656,-575.6 278.6656,4 -4,4"/>
<g id="clust1" class="cluster">
<title>cluster_uncommitted</title>
<polygon fill="#d3d3d3" stroke="#d3d3d3" points="40,-486.8 40,-563.6 150,-563.6 150,-486.8 40,-486.8"/>
<text text-anchor="middle" x="95" y="-547" font-family="Times,serif" font-size="14.00" fill="#000000">Uncommitted</text>
</g>
<g id="clust2" class="cluster">
<title>cluster_committed</title>
<polygon fill="#d3d3d3" stroke="#d3d3d3" points="55,-136.4 55,-435.2 135,-435.2 135,-136.4 55,-136.4"/>
<text text-anchor="middle" x="95" y="-418.6" font-family="Times,serif" font-size="14.00" fill="#000000">Committed</text>
</g>
<g id="clust3" class="cluster">
<title>cluster_final</title>
<polygon fill="#d3d3d3" stroke="#d3d3d3" points="8,-8 8,-84.8 184,-84.8 184,-8 8,-8"/>
<text text-anchor="middle" x="96" y="-68.2" font-family="Times,serif" font-size="14.00" fill="#000000">Final</text>
</g>
<!-- nocontainer -->
<g id="node1" class="node">
<title>nocontainer</title>
<polygon fill="#d3d3d3" stroke="#000000" points="142.4068,-530.8 47.5932,-530.8 47.5932,-494.8 142.4068,-494.8 142.4068,-530.8"/>
<text text-anchor="middle" x="95" y="-508.6" font-family="Times,serif" font-size="14.00" fill="#000000">(no container)</text>
</g>
<!-- queued -->
<g id="node2" class="node">
<title>queued</title>
<polygon fill="#ffffff" stroke="#000000" points="124.5376,-402.4 65.4624,-402.4 65.4624,-366.4 124.5376,-366.4 124.5376,-402.4"/>
<text text-anchor="middle" x="95" y="-380.2" font-family="Times,serif" font-size="14.00" fill="#000000">Queued</text>
</g>
<!-- nocontainer&#45;&gt;queued -->
<g id="edge1" class="edge">
<title>nocontainer-&gt;queued</title>
<path fill="none" stroke="#000000" d="M95,-494.6757C95,-473.3589 95,-437.718 95,-412.7396"/>
<polygon fill="#000000" stroke="#000000" points="98.5001,-412.432 95,-402.4321 91.5001,-412.4321 98.5001,-412.432"/>
<text text-anchor="middle" x="178.7207" y="-464.2" font-family="Times,serif" font-size="14.00" fill="#000000"> start container by setting </text>
<text text-anchor="middle" x="178.7207" y="-447.4" font-family="Times,serif" font-size="14.00" fill="#000000"> state=Committed, priority&gt;0 </text>
</g>
<!-- locked -->
<g id="node3" class="node">
<title>locked</title>
<polygon fill="#ffffff" stroke="#000000" points="123.9818,-291.4 66.0182,-291.4 66.0182,-255.4 123.9818,-255.4 123.9818,-291.4"/>
<text text-anchor="middle" x="95" y="-269.2" font-family="Times,serif" font-size="14.00" fill="#000000">Locked</text>
</g>
<!-- queued&#45;&gt;locked -->
<g id="edge2" class="edge">
<title>queued-&gt;locked</title>
<path fill="none" stroke="#000000" d="M95,-366.0706C95,-348.6373 95,-322.1482 95,-301.9489"/>
<polygon fill="#000000" stroke="#000000" points="98.5001,-301.7566 95,-291.7566 91.5001,-301.7567 98.5001,-301.7566"/>
</g>
<!-- running -->
<g id="node4" class="node">
<title>running</title>
<polygon fill="#ffffff" stroke="#000000" points="127.2276,-180.4 62.7724,-180.4 62.7724,-144.4 127.2276,-144.4 127.2276,-180.4"/>
<text text-anchor="middle" x="95" y="-158.2" font-family="Times,serif" font-size="14.00" fill="#000000">Running</text>
</g>
<!-- locked&#45;&gt;running -->
<g id="edge3" class="edge">
<title>locked-&gt;running</title>
<path fill="none" stroke="#000000" d="M95,-255.0706C95,-237.6373 95,-211.1482 95,-190.9489"/>
<polygon fill="#000000" stroke="#000000" points="98.5001,-190.7566 95,-180.7566 91.5001,-190.7567 98.5001,-190.7566"/>
</g>
<!-- complete -->
<g id="node5" class="node">
<title>complete</title>
<polygon fill="#ffffff" stroke="#000000" points="86.439,-52 15.561,-52 15.561,-16 86.439,-16 86.439,-52"/>
<text text-anchor="middle" x="51" y="-29.8" font-family="Times,serif" font-size="14.00" fill="#000000">Complete</text>
</g>
<!-- running&#45;&gt;complete -->
<g id="edge4" class="edge">
<title>running-&gt;complete</title>
<path fill="none" stroke="#000000" d="M88.7892,-144.2757C81.4189,-122.7678 69.0515,-86.6775 60.482,-61.6702"/>
<polygon fill="#000000" stroke="#000000" points="63.732,-60.3574 57.1792,-52.0321 57.11,-62.6267 63.732,-60.3574"/>
</g>
<!-- cancelled -->
<g id="node6" class="node">
<title>cancelled</title>
<polygon fill="#ffffff" stroke="#000000" points="175.9762,-52 104.0238,-52 104.0238,-16 175.9762,-16 175.9762,-52"/>
<text text-anchor="middle" x="140" y="-29.8" font-family="Times,serif" font-size="14.00" fill="#000000">Cancelled</text>
</g>
<!-- running&#45;&gt;cancelled -->
<g id="edge5" class="edge">
<title>running-&gt;cancelled</title>
<path fill="none" stroke="#ff0000" d="M101.352,-144.2757C108.8898,-122.7678 121.5383,-86.6775 130.3025,-61.6702"/>
<polygon fill="#ff0000" stroke="#ff0000" points="133.6759,-62.6269 133.6804,-52.0321 127.0698,-60.3116 133.6759,-62.6269"/>
<text text-anchor="middle" x="196.3328" y="-113.8" font-family="Times,serif" font-size="14.00" fill="#000000"> cancel container by setting </text>
<text text-anchor="middle" x="196.3328" y="-97" font-family="Times,serif" font-size="14.00" fill="#000000"> priority=0 </text>
</g>
</g>
</svg>