<svg version="1.1" xmlns="http://www.w3.org/2000/svg" width="542.87pt" height="561.4pt" viewBox="0 0 542.87 561.4"><style type="text/css">.dashed {stroke-dasharray: 5,5} .dotted {stroke-dasharray: 1,5} .overlay {fill: none; pointer-events: all}</style><g><g transform="translate(4, 557.4000244140625) scale(1,1)"><polygon stroke="#fffffe" stroke-opacity="0" fill="#ffffff" points="-4,4 -4,-557.4 538.87,-557.4 538.87,4"></polygon><g class="subgraph"><title>cluster_cloudvm</title><path stroke="#d3d3d3" fill="#d3d3d3" d="M 30.22,-8 L 30.22,-385.8,209.22,-385.8,209.22,-8 Z"></path><text x="119.72" y="-369.2" text-anchor="middle" font-family="'Times-Roman',serif" font-size="14" fill="#000000">cloud instance (VM)</text></g><g class="node"><title>SSH server</title><path stroke="#000000" fill="#ffffff" d="M 93.22,-335 m -54.99,0 a 54.99,18 0 1,0 109.98,0 a 54.99,18 0 1,0 -109.98,0"></path><text x="93.22" y="-330.8" text-anchor="middle" font-family="'Times-Roman',serif" font-size="14" fill="#000000">SSH server</text></g><g class="node"><title>crunch-run</title><path stroke="#000000" fill="#ffffff" d="M 148.22,-195.8 m -53.29,0 a 53.29,18 0 1,0 106.58,0 a 53.29,18 0 1,0 -106.58,0"></path><text x="148.22" y="-191.6" text-anchor="middle" font-family="'Times-Roman',serif" font-size="14" fill="#000000">crunch-run</text></g><g class="relation" style="opacity: 1;"><title>SSH server-&gt;crunch-run</title><path stroke="#000000" fill="none" d="M 82.52,-317.19 C 79.55,-311.62,76.72,-305.24,75.2,-299,68.17,-269.97,59.29,-257.07,75.2,-231.8,80.6,-223.24,88.73,-216.72,97.64,-211.78"></path><path class="solid" stroke="#000000" fill="#000000" d="M 99.28,-214.87 L 106.73,-207.34,96.21,-208.58 Z"></path><text x="119.72" y="-261.2" text-anchor="middle" font-family="'Times-Roman',serif" font-size="14" fill="#000000">start crunch-run</text></g><g class="node"><title>docker</title><path stroke="#000000" fill="#ffffff" d="M 85.22,-107 m -37.12,0 a 37.12,18 0 1,0 74.24,0 a 37.12,18 0 1,0 -74.24,0"></path><text x="85.22" y="-102.8" text-anchor="middle" font-family="'Times-Roman',serif" font-size="14" fill="#000000">docker</text></g><g class="relation" style="opacity: 1;"><title>crunch-run-&gt;docker</title><path stroke="#000000" fill="none" d="M 100.13,-187.64 C 83.75,-182.64,67.09,-174.17,57.22,-159.8,51.11,-150.9,54.81,-140.52,61.26,-131.4"></path><path class="solid" stroke="#000000" fill="#000000" d="M 64.14,-133.41 L 67.76,-123.46,58.72,-128.98 Z"></path><path stroke="#0000ff" fill="none" d="M 151.54,-177.75 C 152.71,-167.03,152.46,-153.32,146.22,-143,141.05,-134.47,132.98,-127.82,124.38,-122.72"></path><path class="solid" stroke="#0000ff" fill="#0000ff" d="M 125.8,-119.52 L 115.32,-117.96,122.54,-125.71 Z"></path><text x="102.71" y="-147.2" text-anchor="middle" font-family="'Times-Roman',serif" font-size="14" fill="#000000">create container</text><text x="165.44" y="-147.2" text-anchor="middle" font-family="'Times-Roman',serif" font-size="14" fill="#0000ff">shell</text></g><g class="node"><title>container</title><path stroke="#000000" fill="#ffffff" d="M 119.22,-34 m -46.93,0 a 46.93,18 0 1,0 93.86,0 a 46.93,18 0 1,0 -93.86,0"></path><text x="119.22" y="-29.8" text-anchor="middle" font-family="'Times-Roman',serif" font-size="14" fill="#000000">container</text></g><g class="relation" style="opacity: 1;"><title>crunch-run-&gt;container</title><path stroke="#0000ff" fill="none" d="M 168.59,-179 C 174.07,-173.57,179.29,-167.02,182.22,-159.8,185.02,-152.88,184.16,-150.21,182.22,-143,173.79,-111.83,153.88,-80.42,138.69,-59.57"></path><path class="solid" stroke="#0000ff" fill="#0000ff" d="M 141.3,-57.22 L 132.51,-51.32,135.7,-61.42 Z"></path><text x="197.6" y="-102.8" text-anchor="middle" font-family="'Times-Roman',serif" font-size="14" fill="#0000ff">tcp/http</text></g><g class="relation" style="opacity: 1;"><title>docker-&gt;container</title><path stroke="#000000" fill="none" d="M 93.27,-89.17 C 97.24,-80.9,102.11,-70.72,106.56,-61.44"></path><path class="solid" stroke="#000000" fill="#000000" d="M 109.82,-62.73 L 110.98,-52.2,103.5,-59.71 Z"></path></g><g class="node"><title>controller</title><path stroke="#000000" fill="none" d="M 292.22,-335 m -48.65,0 a 48.65,18 0 1,0 97.3,0 a 48.65,18 0 1,0 -97.3,0"></path><text x="292.22" y="-330.8" text-anchor="middle" font-family="'Times-Roman',serif" font-size="14" fill="#000000">controller</text></g><g class="relation" style="opacity: 1;"><title>crunch-run-&gt;controller</title><path stroke="#000000" fill="none" d="M 156.37,-213.74 C 159,-219.43,161.84,-225.84,164.22,-231.8,175.91,-261.13,164.83,-276.77,187.24,-299,200.71,-312.35,219.4,-320.61,237.28,-325.72"></path><path class="solid" stroke="#000000" fill="#000000" d="M 236.54,-329.14 L 247.09,-328.25,238.28,-322.37 Z"></path><text x="233.7" y="-286.4" text-anchor="middle" font-family="'Times-Roman',serif" font-size="14" fill="#000000">update</text><text x="233.7" y="-269.6" text-anchor="middle" font-family="'Times-Roman',serif" font-size="14" fill="#000000">gateway ip:port,</text><text x="233.7" y="-252.8" text-anchor="middle" font-family="'Times-Roman',serif" font-size="14" fill="#000000">container state,</text><text x="233.7" y="-236" text-anchor="middle" font-family="'Times-Roman',serif" font-size="14" fill="#000000">output, ...</text></g><g class="node"><title>cloud provider</title><path class="dashed" stroke="#000000" fill="none" d="M 202.25,-464.6 L 104.18,-464.6,104.18,-428.6,202.25,-428.6 Z"></path><text x="153.22" y="-442.4" text-anchor="middle" font-family="'Times-Roman',serif" font-size="14" fill="#000000">cloud provider</text></g><g class="relation" style="opacity: 1;"><title>cloud provider-&gt;SSH server</title><path stroke="#000000" fill="none" d="M 143.84,-428.47 C 134.07,-410.62,118.63,-382.42,107.37,-361.85"></path><path class="solid" stroke="#000000" fill="#000000" d="M 110.4,-360.1 L 102.52,-353,104.26,-363.46 Z"></path><text x="191.95" y="-398" text-anchor="middle" font-family="'Times-Roman',serif" font-size="14" fill="#000000">add authorized_keys</text></g><g class="node"><title>dispatcher</title><path stroke="#000000" fill="none" d="M 121.22,-535.4 m -50.94,0 a 50.94,18 0 1,0 101.88,0 a 50.94,18 0 1,0 -101.88,0"></path><text x="121.22" y="-531.2" text-anchor="middle" font-family="'Times-Roman',serif" font-size="14" fill="#000000">dispatcher</text></g><g class="relation" style="opacity: 1;"><title>dispatcher-&gt;SSH server</title><path stroke="#000000" fill="none" d="M 84.19,-522.95 C 57.27,-512.46,22.76,-494.01,6.2,-464.6,-15.98,-425.19,28.29,-382.2,61.44,-357.25"></path><path class="solid" stroke="#000000" fill="#000000" d="M 63.56,-360.03 L 69.58,-351.31,59.43,-354.38 Z"></path><text x="50.72" y="-442.4" text-anchor="middle" font-family="'Times-Roman',serif" font-size="14" fill="#000000">start crunch-run</text></g><g class="relation" style="opacity: 1;"><title>dispatcher-&gt;cloud provider</title><path stroke="#000000" fill="none" d="M 118.61,-517.02 C 117.76,-506.68,117.95,-493.49,122.2,-482.6,123.51,-479.25,125.3,-476,127.36,-472.94"></path><path class="solid" stroke="#000000" fill="#000000" d="M 130.31,-474.84 L 133.71,-464.8,124.8,-470.53 Z"></path><text x="187.72" y="-486.8" text-anchor="middle" font-family="'Times-Roman',serif" font-size="14" fill="#000000">create/destroy/list VMs</text></g><g class="relation" style="opacity: 1;"><title>dispatcher-&gt;controller</title><path stroke="#000000" fill="none" d="M 171.65,-533.15 C 199.28,-529.81,232.11,-521.04,253.22,-499.4,262.74,-489.64,279.17,-406.88,287.33,-363.03"></path><path class="solid" stroke="#000000" fill="#000000" d="M 290.8,-363.51 L 289.17,-353.04,283.91,-362.24 Z"></path><text x="330.03" y="-442.4" text-anchor="middle" font-family="'Times-Roman',serif" font-size="14" fill="#000000">get container queue</text></g><g class="relation" style="opacity: 1;"><title>controller-&gt;crunch-run</title><path stroke="#0000ff" fill="none" d="M 295.12,-316.84 C 297.86,-294.44,298.93,-255.32,278.22,-231.8,261.45,-212.76,235.53,-203.57,211.23,-199.31"></path><path class="solid" stroke="#0000ff" fill="#0000ff" d="M 211.72,-195.84 L 201.31,-197.81,210.68,-202.76 Z"></path><text x="372.04" y="-261.2" text-anchor="middle" font-family="'Times-Roman',serif" font-size="14" fill="#0000ff">shell/tcp/http (https tunnel)</text></g><g class="node"><title>client</title><path stroke="#000000" fill="none" d="M 427.22,-446.6 m -32.48,0 a 32.48,18 0 1,0 64.96,0 a 32.48,18 0 1,0 -64.96,0"></path><text x="427.22" y="-442.4" text-anchor="middle" font-family="'Times-Roman',serif" font-size="14" fill="#000000">client</text></g><g class="relation" style="opacity: 1;"><title>client-&gt;controller</title><path stroke="#0000ff" fill="none" d="M 409.57,-431.27 C 386.64,-412.66,346.37,-379.96,319.49,-358.15"></path><path class="solid" stroke="#0000ff" fill="#0000ff" d="M 321.59,-355.34 L 311.62,-351.75,317.17,-360.77 Z"></path><text x="459.04" y="-398" text-anchor="middle" font-family="'Times-Roman',serif" font-size="14" fill="#0000ff">shell/tcp/http (https tunnel)</text></g></g></g></svg>